<svg xmlns="http://www.w3.org/2000/svg" fill="none" viewBox="0 0 60 60" id="Docker-Icon--Streamline-Svg-Logos" height="60" width="60">
  <desc>
    Docker Icon Streamline Icon: https://streamlinehq.com
  </desc>
  <path fill="#2396ed" d="M58.162312500000006 24.980125c-1.3229374999999999 -0.9179375 -4.3546875 -1.2621875 -6.7249375 -0.8031874999999999 -0.275625 -2.2948125 -1.5434375 -4.3028125 -3.748375 -6.0813125l-1.2678125000000002 -0.9179375 -0.8819375 1.3195625c-1.1024375 1.721125 -1.6536875000000002 4.1306875 -1.4883125 6.4254999999999995 0.055125 0.8031874999999999 0.33075 2.2374375 1.1575625 3.499625 -0.7716875 0.4589375 -2.37025 1.0326875 -4.4649375000000004 1.0326875H0.8900125000000001l-0.11024375 0.4589375c-0.38586062499999996 2.2948125 -0.38586062499999996 9.4661875 4.1341875 14.973749999999999C8.3315625 49.0758125 13.402812500000001 51.198562499999994 20.072625 51.198562499999994c14.442124999999999 0 25.135875 -6.941875 30.1520625 -19.506062500000002 1.984375 0.057375 6.2288125 0 8.378625 -4.3028125 0.055125 -0.11475 0.1653125 -0.3441875 0.5511875 -1.20475L59.375 25.725937499999997l-1.2126875 -0.7458125ZM32.7508125 8.8015625h-6.063437499999999v5.7370624999999995h6.063437499999999v-5.7370624999999995Zm0 6.8845h-6.063437499999999v5.7370624999999995h6.063437499999999v-5.7370624999999995Zm-7.1659375 0h-6.063437499999999v5.7370624999999995h6.063437499999999v-5.7370624999999995Zm-7.165875000000001 0h-6.0634999999999994v5.7370624999999995h6.0634999999999994v-5.7370624999999995ZM11.253062499999999 22.5705625H5.189568749999999v5.7370624999999995h6.063493749999999v-5.7370624999999995Zm7.1659375 0h-6.0634999999999994v5.7370624999999995h6.0634999999999994v-5.7370624999999995Zm7.165875000000001 0h-6.063437499999999v5.7370624999999995h6.063437499999999v-5.7370624999999995Zm7.1659375 0h-6.063437499999999v5.7370624999999995h6.063437499999999v-5.7370624999999995Zm7.1659375 0h-6.0634999999999994v5.7370624999999995h6.0634999999999994v-5.7370624999999995Z" stroke-width="0.625"></path>
</svg>