<?xml version="1.0" encoding="UTF-8"?>
<svg version="1.1" xmlns="http://www.w3.org/2000/svg" width="512" height="512">
<path d="M0 0 C4.98050871 5.15932922 8.24611204 10.54553713 10.77416992 17.28051758 C11.03584961 17.9637207 11.2975293 18.64692383 11.56713867 19.35083008 C15.11093608 30.71952245 12.8957013 43.375696 7.48901367 53.74536133 C0.83427592 64.29284261 -8.77818521 72.98960439 -17.52662659 81.78231812 C-18.64512059 82.90986121 -19.76342457 84.03759283 -20.88155693 85.16549456 C-23.92934412 88.23861323 -26.9801432 91.30872569 -30.03156912 94.37823081 C-32.65450978 97.01744692 -35.27570303 99.65839537 -37.89694811 102.29929535 C-62.74097259 127.32863483 -87.63043773 152.31290405 -112.52920628 177.28777122 C-115.76516662 180.53379849 -119.00103464 183.77991776 -122.23681641 187.02612305 C-123.44305751 188.23623749 -123.44305751 188.23623749 -124.67366713 189.47079869 C-137.71043246 202.5507253 -150.72436775 215.6531359 -163.7296759 228.76433246 C-177.10058942 242.24320107 -190.49419843 255.69919416 -203.90948337 269.13390315 C-211.43397763 276.67053478 -218.94790605 284.2170908 -226.43594551 291.78995895 C-232.80952464 298.23573076 -239.20311383 304.66077275 -245.62361003 311.05982725 C-248.89578439 314.32235336 -252.15758515 317.59369322 -255.39355469 320.89216614 C-258.36182174 323.9173181 -261.3569991 326.91293313 -264.37509166 329.88835318 C-265.45626088 330.9638006 -266.52755816 332.04929503 -267.5870958 333.14606027 C-275.76557902 341.59433926 -282.83298339 344.29704405 -294.22583008 346.28051758 C-296.83044472 346.83566884 -299.42481366 347.42800477 -302.02148438 348.01977539 C-303.33809956 348.30527728 -304.65514684 348.5888149 -305.97306824 348.8682251 C-306.63786886 349.00945045 -307.30266949 349.15067581 -307.98761559 349.29618073 C-308.66821856 349.44054314 -309.34882153 349.58490555 -310.05004883 349.73364258 C-311.49496071 350.04170808 -312.93985058 350.34987682 -314.38471985 350.65814209 C-317.37487585 351.29532538 -320.36549728 351.93026622 -323.35644531 352.5637207 C-327.18154433 353.37418662 -331.00502916 354.19201687 -334.82817364 355.01164627 C-337.79485137 355.64653994 -340.76250083 356.27679247 -343.73044777 356.90572357 C-345.14174508 357.20552333 -346.55270048 357.5069375 -347.96329308 357.81003571 C-349.92566836 358.2311424 -351.88956409 358.64514478 -353.85351562 359.05883789 C-355.52319649 359.41380341 -355.52319649 359.41380341 -357.22660828 359.77593994 C-359.96657016 360.23690068 -362.45566281 360.38115659 -365.22583008 360.28051758 C-364.54640719 351.08718367 -362.73917758 342.18740361 -360.87426758 333.17895508 C-360.7074007 332.37066883 -360.54053383 331.56238258 -360.36861038 330.72960281 C-359.48547339 326.45901236 -358.59489503 322.1900449 -357.69897461 317.92211914 C-356.96325534 314.41024994 -356.2425598 310.89580515 -355.53491211 307.37817383 C-354.67461502 303.10178294 -353.78927358 298.83130221 -352.88594437 294.56380081 C-352.5480801 292.94779891 -352.21875615 291.32998501 -351.89850998 289.71039963 C-351.44742684 287.43942414 -350.96427749 285.17745278 -350.47338867 282.91479492 C-350.20771088 281.63035492 -349.94203308 280.34591492 -349.66830444 279.02255249 C-346.80809327 269.85270418 -336.72736322 262.63546717 -330.08720398 256.00144958 C-328.96201222 254.87366978 -327.83703385 253.74567704 -326.7122491 252.6174913 C-323.6369842 249.53420529 -320.55863244 246.45401782 -317.479725 243.37436974 C-314.15339272 240.04617845 -310.82990957 236.71514398 -307.50601196 233.38452148 C-300.24636201 226.1113247 -292.98296747 218.84187528 -285.71874595 211.57324481 C-281.18042557 207.03215706 -276.6428411 202.49033446 -272.10538673 197.94838142 C-259.53360249 185.36441162 -246.96087701 172.7813839 -234.38469219 160.20181179 C-233.17884759 158.99563783 -233.17884759 158.99563783 -231.94864248 157.76509673 C-231.14287297 156.95910894 -230.33710347 156.15312116 -229.5069167 155.3227095 C-227.87423849 153.68958783 -226.24156183 152.05646461 -224.60888672 150.42333984 C-223.7990305 149.6132622 -222.98917428 148.80318455 -222.15477697 147.96855909 C-209.02621612 134.83604838 -195.90442568 121.69679497 -182.78553309 108.5546267 C-169.30533251 95.0507031 -155.81950397 81.55242137 -142.32801944 68.05977112 C-134.7575469 60.48838261 -127.18950108 52.91460356 -119.62766075 45.33459282 C-113.19072975 38.88224837 -106.74866592 32.4350841 -100.29989847 25.99456864 C-97.01184237 22.71041395 -93.72623464 19.42390625 -90.44716454 16.13077736 C-87.44150364 13.11234817 -84.42891562 10.10101283 -81.41081748 7.09502102 C-80.32412008 6.01027547 -79.23991734 4.92302333 -78.15857764 3.83293682 C-67.28326146 -7.1247114 -56.01960823 -16.70617445 -39.96020508 -17.75463867 C-23.19817985 -17.53912692 -11.64698308 -11.60414512 0 0 Z M-64.60083008 15.53051758 C-65.43227539 16.37098633 -66.2637207 17.21145508 -67.12036133 18.07739258 C-69.16014555 20.1406226 -71.19509294 22.20838881 -73.22583008 24.28051758 C-71.76714254 27.64050776 -69.91714059 29.83254864 -67.3269043 32.40649414 C-66.52622528 33.20702209 -65.72554626 34.00755005 -64.90060425 34.83233643 C-64.03597565 35.68664246 -63.17134705 36.54094849 -62.28051758 37.42114258 C-61.39550568 38.30332458 -60.51049377 39.18550659 -59.59866333 40.09442139 C-57.25132877 42.43246301 -54.89976223 44.76607632 -52.54602051 47.09765625 C-50.14269081 49.48048284 -47.74505241 51.86902106 -45.34692383 54.25708008 C-40.64511541 58.9368362 -35.93764344 63.61083625 -31.22583008 68.28051758 C-25.92860832 65.76115988 -22.34637939 61.76948455 -18.22583008 57.65551758 C-17.41887695 56.87305664 -16.61192383 56.0905957 -15.78051758 55.28442383 C-9.30622411 48.84218131 -4.1570745 42.17084975 -3.97583008 32.65551758 C-4.18169177 21.72901256 -8.56697627 15.84645635 -16.22583008 8.28051758 C-16.73243164 7.75200195 -17.2390332 7.22348633 -17.76098633 6.67895508 C-22.85255829 1.83973508 -30.01877264 -0.33242376 -36.85083008 -1.15698242 C-49.15475982 0.43797143 -56.19206733 6.94741047 -64.60083008 15.53051758 Z M-89.01311409 39.8194046 C-89.74141769 40.54846764 -90.46972128 41.27753067 -91.22009468 42.02868652 C-92.06009172 42.86470146 -92.90008875 43.7007164 -93.76554024 44.56206512 C-95.1575431 45.96280651 -95.1575431 45.96280651 -96.57766724 47.3918457 C-97.56891829 48.38222549 -98.56060837 49.37216604 -99.55270183 50.36170197 C-102.2890813 53.09358841 -105.01915048 55.83170748 -107.74827886 58.57083511 C-110.68809032 61.51925077 -113.63364539 64.46191814 -116.57852173 67.40527344 C-121.68372836 72.50942929 -126.78524851 77.61724615 -131.88431168 82.72753906 C-139.25678499 90.11623836 -146.63474809 97.4994355 -154.01408039 104.88128376 C-165.98522429 116.85680933 -177.95189128 128.83679821 -189.91577148 140.81958008 C-201.5403869 152.46254209 -213.16709254 164.1034102 -224.79663086 175.74145508 C-225.51298435 176.45833402 -226.22933784 177.17521296 -226.96739902 177.9138155 C-230.56100047 181.51002695 -234.15464322 185.10619714 -237.74830651 188.7023468 C-267.58055337 218.55534085 -297.40554716 248.415573 -327.22583008 278.28051758 C-326.28008698 279.3928073 -325.33305808 280.50400381 -324.38549805 281.61474609 C-323.85826141 282.23366226 -323.33102478 282.85257843 -322.78781128 283.49024963 C-320.7404409 285.83684738 -318.56916066 288.03329807 -316.35083008 290.21801758 C-315.5696582 290.99016602 -314.78848633 291.76231445 -313.98364258 292.55786133 C-313.40356445 293.12633789 -312.82348633 293.69481445 -312.22583008 294.28051758 C-306.32492228 289.38442835 -300.91140093 284.1040502 -295.50050354 278.67544556 C-294.52947198 277.70485069 -293.55822043 276.73447586 -292.58676952 275.7643007 C-289.93237041 273.11212722 -287.28108198 270.45686341 -284.63031113 267.80106425 C-281.76582985 264.9322508 -278.898445 262.066342 -276.03141785 259.20007324 C-271.06926705 254.23844593 -266.10894552 249.27499595 -261.14987373 244.31029129 C-253.9799499 237.13222866 -246.80725519 229.95694009 -239.63388859 222.78231816 C-227.99469044 211.14093322 -216.35772562 199.49731846 -204.72216797 187.85229492 C-193.42158417 176.54252733 -182.11994701 165.23381407 -170.81689453 153.92651367 C-169.77121768 152.88044274 -169.77121768 152.88044274 -168.70441604 151.81323905 C-165.20705503 148.31457297 -161.70967333 144.81592757 -158.21228135 141.31729245 C-129.21358958 112.30823972 -100.21852335 83.29556534 -71.22583008 54.28051758 C-72.56003673 51.51790517 -73.80667072 49.44425632 -75.97583008 47.26489258 C-76.50176758 46.73637695 -77.02770508 46.20786133 -77.56958008 45.66333008 C-78.38942383 44.85508789 -78.38942383 44.85508789 -79.22583008 44.03051758 C-80.04567383 43.19907227 -80.04567383 43.19907227 -80.88208008 42.35083008 C-84.5763049 38.04263468 -84.5763049 38.04263468 -89.01311409 39.8194046 Z M-61.01311409 67.8194046 C-61.74141769 68.54846764 -62.46972128 69.27753067 -63.22009468 70.02868652 C-64.06009172 70.86470146 -64.90008875 71.7007164 -65.76554024 72.56206512 C-67.1575431 73.96280651 -67.1575431 73.96280651 -68.57766724 75.3918457 C-69.56891829 76.38222549 -70.56060837 77.37216604 -71.55270183 78.36170197 C-74.2890813 81.09358841 -77.01915048 83.83170748 -79.74827886 86.57083511 C-82.68809032 89.51925077 -85.63364539 92.46191814 -88.57852173 95.40527344 C-93.68372836 100.50942929 -98.78524851 105.61724615 -103.88431168 110.72753906 C-111.25678499 118.11623836 -118.63474809 125.4994355 -126.01408039 132.88128376 C-137.98522429 144.85680933 -149.95189128 156.83679821 -161.91577148 168.81958008 C-173.5403869 180.46254209 -185.16709254 192.1034102 -196.79663086 203.74145508 C-197.51298435 204.45833402 -198.22933784 205.17521296 -198.96739902 205.9138155 C-202.56100047 209.51002695 -206.15464322 213.10619714 -209.74830651 216.7023468 C-239.58055337 246.55534085 -269.40554716 276.415573 -299.22583008 306.28051758 C-298.28008698 307.3928073 -297.33305808 308.50400381 -296.38549805 309.61474609 C-295.85826141 310.23366226 -295.33102478 310.85257843 -294.78781128 311.49024963 C-292.7404409 313.83684738 -290.56916066 316.03329807 -288.35083008 318.21801758 C-287.5696582 318.99016602 -286.78848633 319.76231445 -285.98364258 320.55786133 C-285.40356445 321.12633789 -284.82348633 321.69481445 -284.22583008 322.28051758 C-278.32492228 317.38442835 -272.91140093 312.1040502 -267.50050354 306.67544556 C-266.52947198 305.70485069 -265.55822043 304.73447586 -264.58676952 303.7643007 C-261.93237041 301.11212722 -259.28108198 298.45686341 -256.63031113 295.80106425 C-253.76582985 292.9322508 -250.898445 290.066342 -248.03141785 287.20007324 C-243.06926705 282.23844593 -238.10894552 277.27499595 -233.14987373 272.31029129 C-225.9799499 265.13222866 -218.80725519 257.95694009 -211.63388859 250.78231816 C-199.99469044 239.14093322 -188.35772562 227.49731846 -176.72216797 215.85229492 C-165.42158417 204.54252733 -154.11994701 193.23381407 -142.81689453 181.92651367 C-141.77121768 180.88044274 -141.77121768 180.88044274 -140.70441604 179.81323905 C-137.20705503 176.31457297 -133.70967333 172.81592757 -130.21228135 169.31729245 C-101.21358958 140.30823972 -72.21852335 111.29556534 -43.22583008 82.28051758 C-44.56003673 79.51790517 -45.80667072 77.44425632 -47.97583008 75.26489258 C-48.50176758 74.73637695 -49.02770508 74.20786133 -49.56958008 73.66333008 C-50.38942383 72.85508789 -50.38942383 72.85508789 -51.22583008 72.03051758 C-52.04567383 71.19907227 -52.04567383 71.19907227 -52.88208008 70.35083008 C-56.5763049 66.04263468 -56.5763049 66.04263468 -61.01311409 67.8194046 Z M-335.22583008 297.28051758 C-336.37046008 302.47549389 -337.50963815 307.67162446 -338.64379883 312.86889648 C-339.03032523 314.63647655 -339.41833475 316.40373297 -339.80786133 318.1706543 C-340.36776483 320.71164492 -340.92230995 323.25375482 -341.47583008 325.79614258 C-341.65082031 326.58482727 -341.82581055 327.37351196 -342.00610352 328.18609619 C-342.7570885 331.65798513 -343.22583008 334.71031943 -343.22583008 338.28051758 C-334.38202737 337.56617174 -325.81487571 335.59774316 -317.16333008 333.71801758 C-315.6145893 333.3849289 -314.06576179 333.0522432 -312.5168457 332.7199707 C-308.75215738 331.91146447 -304.98868639 331.09750583 -301.22583008 330.28051758 C-305.11708943 325.63247979 -309.14765265 321.19969059 -313.42895508 316.90942383 C-313.99281921 316.34223129 -314.55668335 315.77503876 -315.13763428 315.19065857 C-316.31612122 314.00715518 -317.4959231 312.82495977 -318.67700195 311.64404297 C-320.49044544 309.82838437 -322.29570694 308.0048347 -324.10083008 306.1809082 C-325.25138316 305.02742586 -326.40240763 303.87441347 -327.55395508 302.72192383 C-328.36331512 301.90178551 -328.36331512 301.90178551 -329.18902588 301.06507874 C-331.72770272 298.17976316 -331.72770272 298.17976316 -335.22583008 297.28051758 Z " fill="#a476ff" transform="translate(431.225830078125,85.719482421875)"/>
<path d="M0 0 C2.95493969 1.17333968 4.61356059 2.92412918 6.86671734 5.16699219 C7.32411492 5.61829866 7.78151249 6.06960513 8.2527706 6.53458756 C9.78386232 8.04902727 11.30401903 9.57398492 12.82440472 11.09916687 C13.91959349 12.18701679 15.01540373 13.27424135 16.11178875 14.36088562 C19.08765963 17.31451734 22.05379474 20.27774598 25.01761746 23.24346185 C27.49044966 25.71641359 29.96760538 28.18501222 32.44466323 30.65373009 C38.28550841 36.47533415 44.11813397 42.30508623 49.94598675 48.13969421 C55.96536097 54.16571668 61.99935743 60.17681127 68.04055482 66.18094856 C73.22237036 71.3321219 78.39452598 76.49285653 83.5590927 81.66132325 C86.64583182 84.7501348 89.73626861 87.83501067 92.83622456 90.91056252 C95.74887547 93.80103821 98.64933459 96.70320625 101.54070187 99.61496735 C102.60587583 100.68356727 103.6753656 101.74788444 104.74934864 102.80763054 C106.21044069 104.25067676 107.65481952 105.71058797 109.09816265 107.17138672 C109.91244134 107.9849529 110.72672003 108.79851908 111.56567383 109.63673878 C113.16498089 111.85966492 113.16498089 111.85966492 113.10769176 113.93949699 C112.03276127 116.12897746 110.86852292 117.53911375 109.1484251 119.27062988 C108.50494122 119.92546356 107.86145733 120.58029724 107.19847393 121.25497437 C106.48834652 121.96217117 105.77821911 122.66936798 105.04657269 123.397995 C104.3018269 124.15121033 103.55708111 124.90442566 102.78976727 125.6804657 C100.32238771 128.1712715 97.84393196 130.65069194 95.36419964 133.12919617 C93.64855487 134.85193768 91.93321146 136.57497937 90.21815777 138.29830933 C86.62106388 141.90886003 83.01807169 145.51340285 79.41131878 149.11430359 C74.78042116 153.73929601 70.16805308 158.38229508 65.56035423 163.03038502 C62.02345347 166.59307498 58.4752085 170.14429325 54.92356586 173.69228172 C53.21750312 175.4000431 51.51544491 177.11181446 49.81742191 178.82756996 C47.4471535 181.2198587 45.06169051 183.59587332 42.67157269 185.9683075 C41.96751797 186.68562546 41.26346325 187.40294342 40.53807354 188.14199829 C39.5601585 189.10310013 39.5601585 189.10310013 38.5624876 190.08361816 C37.99964911 190.64716916 37.43681063 191.21072016 36.85691643 191.79134846 C35.16498089 192.85966492 35.16498089 192.85966492 33.24649525 192.80237579 C30.4107686 191.5180847 28.67072649 189.74973463 26.46324444 187.55233765 C25.77714807 186.87537794 25.77714807 186.87537794 25.07719117 186.18474227 C23.54609945 184.67030256 22.02594275 183.14534491 20.50555706 181.62016296 C19.41036829 180.53231304 18.31455805 179.44508849 17.21817303 178.35844421 C14.24230214 175.40481249 11.27616704 172.44158385 8.31234431 169.47586799 C5.83951211 167.00291624 3.3623564 164.53431761 0.88529855 162.06559974 C-4.95554663 156.24399569 -10.78817219 150.4142436 -16.61602497 144.57963562 C-22.6353992 138.55361315 -28.66939565 132.54251857 -34.71059304 126.53838128 C-39.89240858 121.38720794 -45.06456421 116.22647331 -50.22913092 111.05800658 C-53.31587005 107.96919503 -56.40630683 104.88431916 -59.50626278 101.80876732 C-62.41891369 98.91829162 -65.31937281 96.01612359 -68.21074009 93.10436249 C-69.27591406 92.03576257 -70.34540382 90.9714454 -71.41938686 89.9116993 C-72.88047892 88.46865308 -74.32485775 87.00874186 -75.76820087 85.54794312 C-76.58247956 84.73437694 -77.39675825 83.92081076 -78.23571205 83.08259106 C-79.83501911 80.85966492 -79.83501911 80.85966492 -79.70955658 78.71630573 C-78.430327 76.0005046 -76.6254226 74.17760233 -74.52251911 72.04716492 C-73.7426363 71.2363446 -72.96275349 70.42552429 -72.15923786 69.59013367 C-69.83501911 67.85966492 -69.83501911 67.85966492 -67.9547205 68.00909328 C-65.20143934 69.11390119 -63.69025533 70.63569049 -61.59557819 72.73834229 C-60.75707829 73.5727182 -59.91857838 74.40709412 -59.05466938 75.26675415 C-58.14332737 76.18888199 -57.23198536 77.11100983 -56.29302692 78.06108093 C-55.31772432 79.03722981 -54.34176052 80.01271845 -53.36518574 80.9875946 C-50.71618545 83.63573355 -48.0765418 86.29302567 -45.43846321 88.952039 C-42.67983357 91.7294121 -39.91271589 94.49830173 -37.14648151 97.26809692 C-31.90964275 102.51426299 -26.68049878 107.76803008 -21.45406604 113.02456087 C-15.50353764 119.0086119 -9.5444967 124.98415486 -3.58472013 130.95899308 C8.67468686 143.24976463 20.92334355 155.55119519 33.16498089 167.85966492 C36.93925656 166.09603779 39.34805932 163.91825442 42.30072308 160.95097351 C43.04774738 160.20438728 43.04774738 160.20438728 43.80986309 159.44271851 C45.44864822 157.80254421 47.08024223 156.15540831 48.71185589 154.50810242 C49.84913436 153.36709235 50.98685629 152.22652414 52.12500286 151.08638 C55.11488068 148.0888773 58.0987028 145.08541641 61.08130169 142.08067322 C64.1276941 139.01379779 67.17977792 135.95259798 70.23138714 132.89091492 C76.21483523 126.88603709 82.19189752 120.8748526 88.16498089 114.85966492 C86.54721972 111.43483784 84.74154845 109.2027597 82.03216839 106.53153992 C81.22650433 105.73232117 80.42084026 104.93310242 79.59076214 104.10966492 C78.74900433 103.28466492 77.90724651 102.45966492 77.03998089 101.60966492 C76.1904887 100.76919617 75.34099651 99.92872742 74.46576214 99.06278992 C72.36993165 96.99050809 70.26957375 94.92304099 68.16498089 92.85966492 C63.49623551 96.75943213 59.0737028 100.81181136 54.79388714 105.13310242 C54.2266946 105.7017099 53.65950207 106.27031738 53.07512188 106.8561554 C51.29018176 108.64662727 49.50877833 110.44056976 47.72748089 112.23466492 C46.5070115 113.46015815 45.28631036 114.68542064 44.06537151 115.91044617 C41.09589332 118.89086266 38.12957832 121.87439386 35.16498089 124.85966492 C31.53195005 123.16380366 29.21949043 121.12166004 26.41498089 118.23466492 C25.61576214 117.41739929 24.81654339 116.60013367 23.99310589 115.75810242 C23.38982464 115.13161804 22.78654339 114.50513367 22.16498089 113.85966492 C26.0647481 109.19091954 30.11712733 104.76838683 34.43841839 100.48857117 C35.00702587 99.92137863 35.57563335 99.3541861 36.16147137 98.76980591 C37.95194324 96.98486579 39.74588573 95.20346236 41.53998089 93.42216492 C42.76547412 92.20169552 43.99073661 90.98099438 45.21576214 89.76005554 C48.19617863 86.79057735 51.17970983 83.82426235 54.16498089 80.85966492 C52.67844583 77.39336657 50.70775738 75.16944455 48.03216839 72.53153992 C47.22650433 71.73232117 46.42084026 70.93310242 45.59076214 70.10966492 C44.74900433 69.28466492 43.90724651 68.45966492 43.03998089 67.60966492 C42.1904887 66.76919617 41.34099651 65.92872742 40.46576214 65.06278992 C38.36993165 62.99050809 36.26957375 60.92304099 34.16498089 58.85966492 C28.91323163 63.24409018 24.03275616 67.86808584 19.22748089 72.73466492 C18.54363323 73.42302429 17.85978558 74.11138367 17.15521526 74.82060242 C15.48946625 76.49800003 13.82611869 78.17770282 12.16498089 79.85966492 C8.53195005 78.16380366 6.21949043 76.12166004 3.41498089 73.23466492 C2.61576214 72.41739929 1.81654339 71.60013367 0.99310589 70.75810242 C0.38982464 70.13161804 -0.21345661 69.50513367 -0.83501911 68.85966492 C3.93836215 63.14040626 9.04035268 57.93117108 14.39349651 52.75810242 C14.99484417 52.16771179 15.59619183 51.57732117 16.21576214 50.96903992 C16.75886028 50.44278015 17.30195843 49.91652039 17.86151409 49.37431335 C19.40344808 47.77613787 19.40344808 47.77613787 20.16498089 44.85966492 C13.56498089 38.25966492 6.96498089 31.65966492 0.16498089 24.85966492 C-4.48756331 28.84755994 -8.91272011 32.79810269 -13.20611286 37.13310242 C-13.7733054 37.7017099 -14.34049793 38.27031738 -14.92487812 38.8561554 C-16.70981824 40.64662727 -18.49122167 42.44056976 -20.27251911 44.23466492 C-21.4929885 45.46015815 -22.71368964 46.68542064 -23.93462849 47.91044617 C-26.90410668 50.89086266 -29.87042168 53.87439386 -32.83501911 56.85966492 C-36.46804995 55.16380366 -38.78050957 53.12166004 -41.58501911 50.23466492 C-42.38423786 49.41739929 -43.18345661 48.60013367 -44.00689411 47.75810242 C-44.61017536 47.13161804 -45.21345661 46.50513367 -45.83501911 45.85966492 C-44.35448161 42.4398025 -42.42361073 40.17988633 -39.81597614 37.53422546 C-38.98816639 36.69042831 -38.16035664 35.84663116 -37.30746174 34.9772644 C-36.4116338 34.07607376 -35.51580585 33.17488312 -34.59283161 32.24638367 C-33.67291431 31.3174379 -32.75299702 30.38849213 -31.80520344 29.43139648 C-29.86035218 27.4700868 -27.91117787 25.51318562 -25.95953083 23.55863953 C-23.45685413 21.05055946 -20.97076182 18.52669368 -18.4882803 15.99864483 C-16.11749223 13.5910317 -13.72908332 11.20117042 -11.34283161 8.80888367 C-10.00516239 7.44191597 -10.00516239 7.44191597 -8.64046955 6.04733276 C-7.80635548 5.21929642 -6.9722414 4.39126007 -6.11285114 3.53813171 C-5.01603519 2.43370979 -5.01603519 2.43370979 -3.89706135 1.30697632 C-1.83501911 -0.14033508 -1.83501911 -0.14033508 0 0 Z " fill="#a476ff" transform="translate(340.8350191116333,261.1403350830078)"/>
<path d="M0 0 C2.83572665 1.2842911 4.57576875 3.05264116 6.78325081 5.25003815 C7.24064839 5.70134462 7.69804596 6.15265109 8.16930407 6.61763352 C9.70039579 8.13207323 11.2205525 9.65703088 12.74093819 11.18221283 C13.83612696 12.27006275 14.9319372 13.35728731 16.02832222 14.44393158 C19.0041931 17.3975633 21.97032821 20.36079194 24.93415093 23.32650781 C27.40698313 25.79945955 29.88413885 28.26805818 32.3611967 30.73677605 C38.20204188 36.5583801 44.03466744 42.38813219 49.86252022 48.22274017 C55.88189444 54.24876264 61.9158909 60.25985723 67.95708829 66.26399451 C73.13890383 71.41516786 78.31105945 76.57590249 83.47562617 81.74436921 C86.56236529 84.83318076 89.65280208 87.91805663 92.75275803 90.99360847 C95.66540894 93.88408417 98.56586806 96.78625221 101.45723534 99.69801331 C102.5224093 100.76661323 103.59189907 101.83093039 104.66588211 102.8906765 C106.12697416 104.33372271 107.57135299 105.79363393 109.01469612 107.25443268 C109.82897481 108.06799886 110.6432535 108.88156504 111.4822073 109.71978474 C113.08151436 111.94271088 113.08151436 111.94271088 112.91772175 114.13814831 C111.92496162 116.28055675 110.83920753 117.44105801 109.08151436 119.01692963 C108.4492292 119.59434906 107.81694405 120.17176849 107.16549873 120.76668549 C106.47778389 121.38164886 105.79006905 121.99661224 105.08151436 122.63021088 C98.76376164 128.40435312 92.61480812 134.30908077 86.58151436 140.38021088 C85.46002998 141.50785858 85.46002998 141.50785858 84.31588936 142.65828705 C82.56899544 144.41769983 80.8240645 146.17899747 79.08151436 147.94271088 C78.03355218 147.09627989 76.99358744 146.23994895 75.95651436 145.38021088 C75.37643623 144.90454681 74.79635811 144.42888275 74.19870186 143.93880463 C71.25992348 141.16811136 68.71003159 138.00931432 66.08151436 134.94271088 C73.01151436 128.01271088 79.94151436 121.08271088 87.08151436 113.94271088 C85.27673941 110.33316098 83.9622597 108.58643017 81.16745186 105.83333588 C80.40690498 105.07923431 79.64635811 104.32513275 78.86276436 103.54817963 C78.06870186 102.77087494 77.27463936 101.99357025 76.45651436 101.19271088 C75.65471748 100.39993744 74.85292061 99.607164 74.02682686 98.79036713 C72.0494859 96.83656594 70.06762527 94.88758985 68.08151436 92.94271088 C65.17607564 94.25648004 63.11490377 95.66327579 60.87350655 97.92366791 C60.27318611 98.5241394 59.67286568 99.1246109 59.05435371 99.7432785 C58.10100136 100.71211472 58.10100136 100.71211472 57.12838936 101.70052338 C56.4681678 102.36357483 55.80794624 103.02662628 55.12771797 103.7097702 C53.02423612 105.82442919 50.92782294 107.945943 48.83151436 110.06771088 C47.40489175 111.50436645 45.97781364 112.94056985 44.55026436 114.37630463 C41.05537775 117.89321892 37.56681374 121.41629635 34.08151436 124.94271088 C32.9771785 123.99759604 31.87305318 123.05223519 30.76901436 122.10677338 C30.15413155 121.58035248 29.53924873 121.05393158 28.90573311 120.51155853 C26.46481327 118.41234134 24.15961456 116.41045486 22.08151436 113.94271088 C22.41132409 110.66132125 23.64594935 109.0087918 25.948946 106.73470306 C26.54949303 106.13438263 27.15004005 105.53406219 27.76878548 104.91555023 C28.41983757 104.27998199 29.07088966 103.64441376 29.74167061 102.98958588 C30.40613701 102.32936432 31.07060341 101.66914276 31.75520515 100.98891449 C33.87786999 98.88303448 36.01073041 96.7878276 38.14401436 94.69271088 C39.58545369 93.26631856 41.02621745 91.83924318 42.46627998 90.41146088 C45.99690268 86.91390494 49.53670489 83.42588523 53.08151436 79.94271088 C51.50563431 76.61791638 49.79979946 74.42639471 47.16745186 71.83333588 C46.40690498 71.07923431 45.64635811 70.32513275 44.86276436 69.54817963 C44.06870186 68.77087494 43.27463936 67.99357025 42.45651436 67.19271088 C41.65471748 66.39993744 40.85292061 65.607164 40.02682686 64.79036713 C38.0494859 62.83656594 36.06762527 60.88758985 34.08151436 58.94271088 C30.5138715 60.45647169 28.24445149 62.54784217 25.53463936 65.29427338 C24.69030342 66.14505463 23.84596748 66.99583588 22.97604561 67.87239838 C22.1033503 68.7618515 21.23065498 69.65130463 20.33151436 70.56771088 C19.4433503 71.46489838 18.55518623 72.36208588 17.64010811 73.28646088 C15.44934466 75.50078092 13.26338672 77.71963523 11.08151436 79.94271088 C9.9771785 78.99759604 8.87305318 78.05223519 7.76901436 77.10677338 C7.15413155 76.58035248 6.53924873 76.05393158 5.90573311 75.51155853 C3.46481327 73.41234134 1.15961456 71.41045486 -0.91848564 68.94271088 C-0.68744603 64.99591346 1.61594439 63.06128277 4.33542061 60.39583588 C5.61642647 59.12933197 5.61642647 59.12933197 6.92331123 57.83724213 C7.82114326 56.96454681 8.7189753 56.0918515 9.64401436 55.19271088 C10.54571358 54.30454681 11.4474128 53.41638275 12.37643623 52.50130463 C14.60488534 50.30822773 16.84003029 48.12245044 19.08151436 45.94271088 C17.62406012 42.57935494 15.77033582 40.39737083 13.16745186 37.83333588 C12.40690498 37.07923431 11.64635811 36.32513275 10.86276436 35.54817963 C10.06870186 34.77087494 9.27463936 33.99357025 8.45651436 33.19271088 C7.65471748 32.39993744 6.85292061 31.607164 6.02682686 30.79036713 C4.0494859 28.83656594 2.06762527 26.88758985 0.08151436 24.94271088 C-3.74243484 26.52148521 -6.15490663 28.93772801 -9.05422783 31.85140228 C-9.80125214 32.59798851 -9.80125214 32.59798851 -10.56336784 33.35965729 C-12.20215297 34.99983158 -13.83374698 36.64696749 -15.46536064 38.29427338 C-16.60263911 39.43528344 -17.74036104 40.57585165 -18.87850761 41.71599579 C-21.86838543 44.71349849 -24.85220756 47.71695938 -27.83480644 50.72170258 C-30.88119885 53.788578 -33.93328267 56.84977782 -36.98489189 59.91146088 C-42.96833998 65.91633871 -48.94540227 71.9275232 -54.91848564 77.94271088 C-53.45126684 81.33574448 -51.57133217 83.52698397 -48.9507885 86.11727142 C-47.70761612 87.3537291 -47.70761612 87.3537291 -46.43932915 88.61516571 C-45.52857628 89.5108728 -44.61782341 90.4065799 -43.67947197 91.32942963 C-42.71158416 92.28856518 -41.74417347 93.24818242 -40.77720451 94.20824432 C-38.6965654 96.27240974 -36.61300786 98.33356775 -34.52725983 100.3925705 C-31.23155625 103.64690739 -27.94509781 106.91047247 -24.66035271 110.17586517 C-15.31954122 119.45909369 -5.96874771 128.73218716 3.39669991 137.99056244 C8.57089813 143.10576361 13.73616245 148.22981241 18.89171392 153.36380863 C22.15695209 156.61437673 25.432981 159.85353798 28.71727407 163.0848465 C30.754097 165.09400371 32.78042828 167.11348495 34.80386734 169.13611221 C36.19717054 170.52264133 37.60292424 171.89662345 39.00894356 173.27025604 C40.23942673 174.50671371 40.23942673 174.50671371 41.49476814 175.76815033 C42.215778 176.48195358 42.93678785 177.19575684 43.67964649 177.93119049 C45.08151436 179.94271088 45.08151436 179.94271088 44.92604733 182.05396271 C43.69226076 184.81325359 41.88516507 186.61135279 39.76901436 188.75521088 C38.98913155 189.56603119 38.20924873 190.3768515 37.40573311 191.21224213 C35.08151436 192.94271088 35.08151436 192.94271088 33.23010921 192.82007313 C30.29933491 191.62331389 28.62357483 189.86892955 26.37977791 187.63538361 C25.69368154 186.9584239 25.69368154 186.9584239 24.99372464 186.26778823 C23.46263292 184.75334852 21.94247622 183.22839087 20.42209053 181.70320892 C19.32690176 180.615359 18.23109152 179.52813445 17.1347065 178.44149017 C14.15883561 175.48785845 11.19270051 172.52462981 8.22887778 169.55891395 C5.75604558 167.0859622 3.27888987 164.61736357 0.80183202 162.1486457 C-5.03901316 156.32704165 -10.87163872 150.49728956 -16.6994915 144.66268158 C-22.71886573 138.63665911 -28.75286218 132.62556452 -34.79405957 126.62142724 C-39.97587511 121.4702539 -45.14803074 116.30951927 -50.31259745 111.14105254 C-53.39933658 108.05224099 -56.48977336 104.96736512 -59.58972931 101.89181328 C-62.50238022 99.00133758 -65.40283934 96.09916955 -68.29420662 93.18740845 C-69.35938059 92.11880853 -70.42887035 91.05449136 -71.50285339 89.99474525 C-72.96394545 88.55169904 -74.40832428 87.09178782 -75.8516674 85.63098907 C-76.66594609 84.8174229 -77.48022478 84.00385672 -78.31917858 83.16563702 C-79.91848564 80.94271088 -79.91848564 80.94271088 -79.86119652 78.8628788 C-78.78626603 76.67339833 -77.62202767 75.26326204 -75.90192986 73.53174591 C-75.25844597 72.87691223 -74.61496208 72.22207855 -73.95197868 71.54740143 C-73.24185127 70.84020462 -72.53172386 70.13300781 -71.80007744 69.4043808 C-71.05533165 68.65116547 -70.31058586 67.89795013 -69.54327202 67.1219101 C-67.07589246 64.63110429 -64.59743672 62.15168385 -62.11770439 59.67317963 C-60.40205962 57.95043811 -58.68671621 56.22739643 -56.97166252 54.50406647 C-53.37456863 50.89351577 -49.77157644 47.28897294 -46.16482353 43.6880722 C-41.53392592 39.06307979 -36.92155783 34.42008071 -32.31385899 29.77199078 C-28.77695822 26.20930082 -25.22871325 22.65808255 -21.67707062 19.11009407 C-19.97100787 17.40233269 -18.26894967 15.69056133 -16.57092667 13.97480583 C-14.20065825 11.5825171 -11.81519527 9.20650247 -9.42507744 6.8340683 C-8.72102272 6.11675034 -8.016968 5.39943237 -7.29157829 4.6603775 C-6.63963493 4.01964294 -5.98769157 3.37890839 -5.31599236 2.71875763 C-4.75315387 2.15520663 -4.19031538 1.59165564 -3.61042118 1.01102734 C-1.91848564 -0.05728912 -1.91848564 -0.05728912 0 0 Z " fill="#a476ff" transform="translate(137.9184856414795,58.057289123535156)"/>
</svg>
