<?xml version="1.0" encoding="UTF-8"?>
<svg version="1.1" xmlns="http://www.w3.org/2000/svg" width="512" height="512">
<path d="M0 0 C1.77883971 1.32547171 3.50283558 2.7243682 5.20703125 4.14453125 C8.42550392 2.62863809 11.3081475 0.7990181 14.26953125 -1.16796875 C31.98320887 -12.45310641 51.84461116 -15.8511264 72.59765625 -12.19921875 C85.00313808 -9.18868341 96.69115414 -3.40069173 106.20703125 5.14453125 C107.02816406 5.87285156 107.84929687 6.60117187 108.6953125 7.3515625 C118.72826338 16.77553306 125.08786433 28.05429406 129.20703125 41.14453125 C129.20703125 41.80453125 129.20703125 42.46453125 129.20703125 43.14453125 C129.89925781 43.25023437 130.59148437 43.3559375 131.3046875 43.46484375 C150.74523744 48.0175432 167.74809207 65.34914528 178.01147461 81.53051758 C191.21785652 103.45044957 195.55540624 130.4869776 189.58203125 155.51953125 C186.83082047 165.83122524 182.85966527 175.82938375 176.11328125 184.1796875 C174.93335859 186.18537836 174.93335859 186.18537836 175.87890625 188.625 C177.12570459 190.99024979 178.47107364 193.17358385 179.95703125 195.39453125 C182.75230097 199.9711003 184.67572443 204.61117486 186.45703125 209.64453125 C186.70291992 210.33192383 186.94880859 211.01931641 187.20214844 211.72753906 C195.37811214 235.66901623 193.00741232 262.69312512 182.18359375 285.359375 C171.47642749 306.53158566 153.87321427 322.06198614 132.20703125 331.14453125 C131.21703125 331.14453125 130.22703125 331.14453125 129.20703125 331.14453125 C129.06007813 331.81097656 128.913125 332.47742188 128.76171875 333.1640625 C124.01537973 352.66769699 110.47375423 368.1435627 93.578125 378.453125 C89.56471844 380.46680407 85.49379137 381.83814155 81.20703125 383.14453125 C81.22797852 384.24853271 81.24892578 385.35253418 81.27050781 386.48999023 C81.34340732 390.62169202 81.38901085 394.75333802 81.42675781 398.88549805 C81.4467603 400.66717111 81.47397148 402.44877948 81.50878906 404.23022461 C81.86895199 423.14407505 81.86895199 423.14407505 77.20703125 430.14453125 C76.50320313 431.34142578 76.50320313 431.34142578 75.78515625 432.5625 C72.23983326 437.28612151 68.31320148 441.10843003 63.20703125 444.14453125 C62.54703125 444.14453125 61.88703125 444.14453125 61.20703125 444.14453125 C61.2534375 444.799375 61.29984375 445.45421875 61.34765625 446.12890625 C61.91058614 460.36299067 55.73321461 473.50382047 46.14453125 483.89453125 C35.04832273 494.30906143 21.49169987 499.75094491 6.33203125 499.58203125 C5.36604004 499.57373291 4.40004883 499.56543457 3.40478516 499.55688477 C-3.92984012 499.38342662 -10.15918869 498.43706819 -16.79296875 495.14453125 C-17.80488281 494.64695312 -18.81679687 494.149375 -19.859375 493.63671875 C-33.65661841 486.21141879 -42.75630509 474.73752088 -47.79296875 459.95703125 C-49.16005673 454.72378362 -49.06863761 449.51496913 -48.79296875 444.14453125 C-49.53546875 443.87898438 -50.27796875 443.6134375 -51.04296875 443.33984375 C-59.17163541 439.80664489 -64.56855179 432.59445616 -67.84375 424.57006836 C-69.01155119 420.35571176 -69.04435589 416.5931636 -68.98828125 412.24609375 C-68.98545135 411.41113373 -68.98262146 410.57617371 -68.97970581 409.71591187 C-68.96857176 407.06696834 -68.94348002 404.41837141 -68.91796875 401.76953125 C-68.90793018 399.96615074 -68.89880587 398.16276489 -68.890625 396.359375 C-68.86865465 391.95429492 -68.83417196 387.54947172 -68.79296875 383.14453125 C-69.68157593 382.86536865 -69.68157593 382.86536865 -70.58813477 382.58056641 C-81.56962246 379.04277078 -89.58563614 373.21687483 -97.79296875 365.14453125 C-98.84484375 364.11199219 -98.84484375 364.11199219 -99.91796875 363.05859375 C-108.44109304 354.10265455 -114.41215974 343.29657722 -116.79296875 331.14453125 C-117.50195312 331.03238281 -118.2109375 330.92023438 -118.94140625 330.8046875 C-137.45173424 326.51941979 -154.78086056 309.70053405 -164.79296875 294.14453125 C-178.07869829 271.58811438 -183.37401489 244.56120994 -177.16796875 218.76953125 C-174.73101741 209.61670438 -171.19547577 200.4913749 -165.85546875 192.64453125 C-164.245149 190.16631189 -163.80385295 189.31142238 -163.60546875 186.26953125 C-164.67944649 183.44327404 -165.86680723 181.36351612 -167.48046875 178.83203125 C-170.34047011 174.27670378 -172.26338404 169.69215132 -174.04296875 164.64453125 C-174.41168091 163.61332153 -174.41168091 163.61332153 -174.7878418 162.5612793 C-182.96616038 138.62398075 -180.59701845 111.58630775 -169.765625 88.92578125 C-159.1419583 67.9238967 -141.46033916 52.0716061 -119.79296875 43.14453125 C-118.80296875 43.14453125 -117.81296875 43.14453125 -116.79296875 43.14453125 C-116.60734375 42.19707031 -116.60734375 42.19707031 -116.41796875 41.23046875 C-113.39153532 28.10331375 -106.29328103 17.51380474 -96.79296875 8.14453125 C-96.1071875 7.4484375 -95.42140625 6.75234375 -94.71484375 6.03515625 C-69.07880215 -18.46150573 -28.73338149 -19.08861008 0 0 Z M-78.890625 34.5625 C-87.32680283 45.82864831 -89.30497934 57.383937 -87.79296875 71.14453125 C-85.87893811 80.18778839 -80.89331763 87.56424369 -74.98046875 94.51953125 C-71.67804947 98.48243438 -71.43863985 101.82623662 -71.51953125 106.79296875 C-71.99149152 110.85182708 -73.26028115 112.89749586 -75.79296875 116.14453125 C-80.51329308 118.90547567 -84.36451208 119.73672652 -89.79296875 119.14453125 C-100.17144624 115.46882047 -105.87486583 105.38147244 -110.79296875 96.14453125 C-112.65291125 91.87042097 -114.25165222 87.54146523 -115.79296875 83.14453125 C-116.45101944 81.47444397 -117.11472977 79.80652226 -117.79296875 78.14453125 C-130.96696587 84.17775559 -139.29783333 97.32254861 -144.79296875 110.14453125 C-145.33824219 111.41683594 -145.33824219 111.41683594 -145.89453125 112.71484375 C-151.34540118 128.55802645 -148.58137107 147.24161945 -141.40625 161.99609375 C-138.31746259 167.46282434 -134.43454147 172.2921999 -130.4296875 177.11328125 C-127.13222793 181.20559384 -127.33785047 184.91961214 -127.38671875 190.05078125 C-128.03558036 194.99211194 -130.54828889 197.54407509 -133.79296875 201.14453125 C-146.17423675 217.0555467 -149.24812364 233.43809614 -147.79296875 253.14453125 C-145.2366491 271.63278536 -133.49932828 284.5443499 -119.79296875 296.14453125 C-118.80296875 295.81453125 -117.81296875 295.48453125 -116.79296875 295.14453125 C-115.91309635 292.86349219 -115.20532948 290.67574721 -114.54296875 288.33203125 C-110.79068853 276.23510636 -104.11439745 262.89357591 -92.7265625 256.39453125 C-88.47231735 254.58180362 -85.10570536 254.38926487 -80.67578125 255.8359375 C-77.13740518 257.3847871 -75.12402525 258.69967407 -72.79296875 261.83203125 C-71.05331067 267.59464865 -70.87829045 272.09565187 -73.35546875 277.64453125 C-75.15111107 280.41787205 -77.22343202 282.94707484 -79.29296875 285.51953125 C-87.75939916 296.14799003 -89.08816759 307.92827583 -87.79296875 321.14453125 C-85.17033558 332.01497806 -78.06843844 342.63185874 -68.80078125 348.9375 C-49.79806429 360.36131234 -31.84556404 357.14453125 -8.79296875 357.14453125 C-8.79296875 323.81453125 -8.79296875 290.48453125 -8.79296875 256.14453125 C-17.20796875 253.66953125 -17.20796875 253.66953125 -25.79296875 251.14453125 C-43.7738303 242.58221622 -56.87913733 231.84995097 -64.79296875 213.14453125 C-65.2725 212.03078125 -65.2725 212.03078125 -65.76171875 210.89453125 C-67.76139278 205.41394317 -68.09606002 200.10992858 -68.16796875 194.33203125 C-68.18190674 193.60234131 -68.19584473 192.87265137 -68.21020508 192.12084961 C-68.17027988 187.61656168 -67.67505121 184.6495966 -64.79296875 181.14453125 C-61.12879345 178.30974698 -58.3822389 177.73440928 -53.79296875 177.76953125 C-52.78234375 177.76179687 -51.77171875 177.7540625 -50.73046875 177.74609375 C-46.31071353 178.34558182 -43.8156214 179.84192165 -41.06640625 183.34375 C-39.49040531 186.80998519 -38.95273895 190.22454463 -38.41796875 193.95703125 C-36.41477465 206.03221972 -30.58612099 212.64525323 -20.8515625 219.78515625 C-17.04662979 222.29771143 -13.43515062 224.14453125 -8.79296875 224.14453125 C-8.62944612 199.49261981 -8.50600698 174.84078965 -8.43028355 150.18844509 C-8.39418921 138.74190071 -8.34497988 127.29569332 -8.26489258 115.84936523 C-8.19512152 105.87271194 -8.14996093 95.89630268 -8.13434929 85.9194122 C-8.12522342 80.63658981 -8.1037775 75.3544656 -8.05285835 70.07186699 C-8.00530879 65.09850465 -7.99069515 60.12612734 -8.00121498 55.15255928 C-7.9992908 53.32841766 -7.98538695 51.50424277 -7.95853043 49.68029785 C-7.51990305 40.26342449 -7.51990305 40.26342449 -10.31495476 31.53520393 C-12.05659793 29.7523038 -13.67552527 28.44289464 -15.79296875 27.14453125 C-16.63601562 26.520625 -17.4790625 25.89671875 -18.34765625 25.25390625 C-20.80029005 23.81700968 -23.26468458 22.44411657 -25.79296875 21.14453125 C-26.45554687 20.80164062 -27.118125 20.45875 -27.80078125 20.10546875 C-46.07179961 12.43880614 -66.56519387 20.35497324 -78.890625 34.5625 Z M27.20703125 28.14453125 C26.7119425 28.53694315 26.21685375 28.92935505 25.70676231 29.33365822 C22.42600915 32.20978787 21.30381945 33.61996403 20.48550415 38.05502319 C20.46827278 39.5488504 20.48370842 41.04328982 20.52587891 42.53662109 C20.52500275 43.35679718 20.52412659 44.17697327 20.52322388 45.02200317 C20.52738502 47.71748015 20.57396355 50.41042977 20.62109375 53.10546875 C20.63229122 54.98018026 20.6408288 56.85490939 20.64682007 58.72964478 C20.66967514 63.65216974 20.7285695 68.57362414 20.79504395 73.49572754 C20.85653833 78.52304605 20.88385034 83.55053839 20.9140625 88.578125 C20.97831615 98.43406285 21.08065523 108.28920786 21.20703125 118.14453125 C22.91076904 118.62067871 22.91076904 118.62067871 24.64892578 119.10644531 C26.17100177 119.54065357 27.69296865 119.97524442 29.21484375 120.41015625 C29.95968018 120.61721191 30.7045166 120.82426758 31.47192383 121.03759766 C49.61853868 126.26177249 64.17807124 137.35065217 73.703125 153.71484375 C74.99205799 156.15501957 76.13195538 158.60344282 77.20703125 161.14453125 C77.6865625 162.25828125 77.6865625 162.25828125 78.17578125 163.39453125 C80.17545528 168.87511933 80.51012252 174.17913392 80.58203125 179.95703125 C80.59596924 180.68672119 80.60990723 181.41641113 80.62426758 182.16821289 C80.58434238 186.67250082 80.08911371 189.6394659 77.20703125 193.14453125 C73.54285595 195.97931552 70.7963014 196.55465322 66.20703125 196.51953125 C65.19640625 196.52726563 64.18578125 196.535 63.14453125 196.54296875 C58.72477603 195.94348068 56.2296839 194.44714085 53.48046875 190.9453125 C51.90446781 187.47907731 51.36680145 184.06451787 50.83203125 180.33203125 C48.82883715 168.25684278 43.00018349 161.64380927 33.265625 154.50390625 C29.46069229 151.99135107 25.84921312 150.14453125 21.20703125 150.14453125 C21.20703125 218.45453125 21.20703125 286.76453125 21.20703125 357.14453125 C57.00327736 359.20762752 57.00327736 359.20762752 87.3984375 344.18359375 C90.94064685 340.19000136 93.6350863 335.80658842 96.20703125 331.14453125 C96.64402344 330.3865625 97.08101563 329.62859375 97.53125 328.84765625 C102.09995041 319.54995016 101.8353472 306.78730151 98.58203125 297.08203125 C95.79778274 290.6674375 91.90808249 285.07882418 87.39453125 279.76953125 C84.09211197 275.80662812 83.85270235 272.46282588 83.93359375 267.49609375 C84.40555402 263.43723542 85.67434365 261.39156664 88.20703125 258.14453125 C92.92735558 255.38358683 96.77857458 254.55233598 102.20703125 255.14453125 C112.58550874 258.82024203 118.28892833 268.90759006 123.20703125 278.14453125 C125.06697375 282.41864153 126.66571472 286.74759727 128.20703125 291.14453125 C128.86508194 292.81461853 129.52879227 294.48254024 130.20703125 296.14453125 C143.38102837 290.11130691 151.71189583 276.96651389 157.20703125 264.14453125 C157.57054687 263.29632813 157.9340625 262.448125 158.30859375 261.57421875 C163.75946368 245.73103605 160.99543357 227.04744305 153.8203125 212.29296875 C150.73152509 206.82623816 146.84860397 201.9968626 142.84375 197.17578125 C139.54629043 193.08346866 139.75191297 189.36945036 139.80078125 184.23828125 C140.44964286 179.29695056 142.96235139 176.74498741 146.20703125 173.14453125 C158.58829925 157.2335158 161.66218614 140.85096636 160.20703125 121.14453125 C157.6507116 102.65627714 145.91339078 89.7447126 132.20703125 78.14453125 C130.72203125 78.63953125 130.72203125 78.63953125 129.20703125 79.14453125 C128.32715885 81.42557031 127.61939198 83.61331529 126.95703125 85.95703125 C123.20475103 98.05395614 116.52845995 111.39548659 105.140625 117.89453125 C100.88637985 119.70725888 97.51976786 119.89979763 93.08984375 118.453125 C89.55146768 116.9042754 87.53808775 115.58938843 85.20703125 112.45703125 C83.46737317 106.69441385 83.29235295 102.19341063 85.76953125 96.64453125 C87.56517357 93.87119045 89.63749452 91.34198766 91.70703125 88.76953125 C100.13427611 78.19026464 101.58860082 66.31816971 100.20703125 53.14453125 C98.42965608 46.51847663 95.36465034 40.6014063 91.20703125 35.14453125 C90.50578125 34.17515625 89.80453125 33.20578125 89.08203125 32.20703125 C82.63585532 24.71924762 73.01213111 18.98737875 63.140625 17.92138672 C49.42071597 16.96994085 38.11107232 19.30341687 27.20703125 28.14453125 Z M-38.79296875 387.14453125 C-39.95963542 402.15601187 -39.95963542 402.15601187 -36.79296875 416.14453125 C-33.19640902 417.34338449 -29.91558318 417.29211573 -26.17211914 417.28979492 C-25.01067131 417.29483284 -25.01067131 417.29483284 -23.82575989 417.29997253 C-21.26403198 417.30947802 -18.70236945 417.31142539 -16.140625 417.3125 C-14.36087517 417.31571266 -12.58112561 417.31907674 -10.80137634 417.32258606 C-7.06980782 417.32857617 -3.33826245 417.33042606 0.39331055 417.32983398 C5.17621085 417.32973232 9.95896283 417.34338924 14.74182796 417.36060619 C18.41781802 417.37172084 22.09377215 417.37375336 25.7697773 417.37322426 C27.5332344 417.374405 29.2966924 417.37883205 31.06013298 417.38655663 C33.52579031 417.39634651 35.99112465 417.39348258 38.45678711 417.38745117 C39.18575195 417.39307068 39.9147168 417.39869019 40.66577148 417.40447998 C44.29391534 417.38191093 47.22833219 417.35729311 50.20703125 415.14453125 C53.16037211 406.28450868 51.20703125 396.48381507 51.20703125 387.14453125 C21.50703125 387.14453125 -8.19296875 387.14453125 -38.79296875 387.14453125 Z M-17.79296875 447.14453125 C-16.61722315 454.19900486 -14.52896137 458.54884594 -9.35546875 463.45703125 C-1.84070842 468.40577586 4.3110604 469.20167577 13.20703125 468.14453125 C20.77372171 465.61509472 25.09420598 460.78733344 29.01953125 454.01953125 C30.46153802 451.04678893 30.46153802 451.04678893 30.20703125 447.14453125 C14.36703125 447.14453125 -1.47296875 447.14453125 -17.79296875 447.14453125 Z " fill="#a476ff" transform="translate(249.79296875,12.85546875)"/>
<path d="M0 0 C5.75854724 2.65371073 10.94313942 6.35288717 16.12133789 9.97924805 C18.57006618 11.69279458 21.0439854 13.36351492 23.52539062 15.02929688 C25.10318095 16.10439947 26.67941158 17.1817954 28.25390625 18.26171875 C28.9882338 18.76088303 29.72256134 19.2600473 30.47914124 19.77433777 C34.2755183 22.44777522 37.04494953 24.64598544 39 29 C39.82885269 34.54808604 39.7240695 39.47140883 37.3125 44.5625 C33.68286486 48.38833163 30.14636937 50.49647475 24.84765625 50.91796875 C15.85952799 50.67973584 8.98589472 44.99804095 1.87866211 40.02075195 C-0.57006618 38.30720542 -3.0439854 36.63648508 -5.52539062 34.97070312 C-7.10318095 33.89560053 -8.67941158 32.8182046 -10.25390625 31.73828125 C-10.9882338 31.23911697 -11.72256134 30.7399527 -12.47914124 30.22566223 C-16.2755183 27.55222478 -19.04494953 25.35401456 -21 21 C-21.82885269 15.45191396 -21.7240695 10.52859117 -19.3125 5.4375 C-13.67891548 -0.5006026 -7.88764328 -1.79594599 0 0 Z " fill="#a476ff" transform="translate(473,300)"/>
<path d="M0 0 C4.61581142 2.18643699 6.72864085 4.49599804 9 9 C9.43359375 11.90234375 9.43359375 11.90234375 9.4375 14.9375 C9.45683594 15.93652344 9.47617187 16.93554688 9.49609375 17.96484375 C8.63449315 23.23621119 5.71883487 26.66488885 1.5234375 29.79248047 C0.1498381 30.74743979 -1.23357701 31.68839007 -2.625 32.6171875 C-3.3677417 33.11920685 -4.1104834 33.6212262 -4.87573242 34.13845825 C-6.44501609 35.19169344 -8.01860699 36.2385361 -9.59619141 37.27929688 C-11.98388196 38.86430048 -14.34078244 40.48908342 -16.69921875 42.1171875 C-30.44703353 51.37401508 -30.44703353 51.37401508 -39.65991211 50.5559082 C-44.26153496 49.46275273 -46.90786957 47.52793248 -49.625 43.7265625 C-51.19785239 40.6076677 -51.43302527 38.53936576 -51.4375 35.0625 C-51.45683594 34.06347656 -51.47617187 33.06445312 -51.49609375 32.03515625 C-50.63449315 26.76378881 -47.71883487 23.33511115 -43.5234375 20.20751953 C-42.1498381 19.25256021 -40.76642299 18.31160993 -39.375 17.3828125 C-38.6322583 16.88079315 -37.8895166 16.3787738 -37.12426758 15.86154175 C-35.55498391 14.80830656 -33.98139301 13.7614639 -32.40380859 12.72070312 C-30.01611804 11.13569952 -27.65921756 9.51091658 -25.30078125 7.8828125 C-10.04840152 -2.38708506 -10.04840152 -2.38708506 0 0 Z " fill="#a476ff" transform="translate(51,300)"/>
<path d="M0 0 C4.61581142 2.18643699 6.72864085 4.49599804 9 9 C9.43359375 11.90234375 9.43359375 11.90234375 9.4375 14.9375 C9.45683594 15.93652344 9.47617187 16.93554688 9.49609375 17.96484375 C8.63449315 23.23621119 5.71883487 26.66488885 1.5234375 29.79248047 C0.1498381 30.74743979 -1.23357701 31.68839007 -2.625 32.6171875 C-3.3677417 33.11920685 -4.1104834 33.6212262 -4.87573242 34.13845825 C-6.44501609 35.19169344 -8.01860699 36.2385361 -9.59619141 37.27929688 C-11.98388196 38.86430048 -14.34078244 40.48908342 -16.69921875 42.1171875 C-30.44703353 51.37401508 -30.44703353 51.37401508 -39.65991211 50.5559082 C-44.26153496 49.46275273 -46.90786957 47.52793248 -49.625 43.7265625 C-51.19785239 40.6076677 -51.43302527 38.53936576 -51.4375 35.0625 C-51.45683594 34.06347656 -51.47617187 33.06445312 -51.49609375 32.03515625 C-50.63449315 26.76378881 -47.71883487 23.33511115 -43.5234375 20.20751953 C-42.1498381 19.25256021 -40.76642299 18.31160993 -39.375 17.3828125 C-38.6322583 16.88079315 -37.8895166 16.3787738 -37.12426758 15.86154175 C-35.55498391 14.80830656 -33.98139301 13.7614639 -32.40380859 12.72070312 C-30.01611804 11.13569952 -27.65921756 9.51091658 -25.30078125 7.8828125 C-10.04840152 -2.38708506 -10.04840152 -2.38708506 0 0 Z " fill="#a476ff" transform="translate(503,50)"/>
<path d="M0 0 C5.75854724 2.65371073 10.94313942 6.35288717 16.12133789 9.97924805 C18.57006618 11.69279458 21.0439854 13.36351492 23.52539062 15.02929688 C25.10318095 16.10439947 26.67941158 17.1817954 28.25390625 18.26171875 C28.9882338 18.76088303 29.72256134 19.2600473 30.47914124 19.77433777 C34.2755183 22.44777522 37.04494953 24.64598544 39 29 C39.82885269 34.54808604 39.7240695 39.47140883 37.3125 44.5625 C33.68286486 48.38833163 30.14636937 50.49647475 24.84765625 50.91796875 C15.85952799 50.67973584 8.98589472 44.99804095 1.87866211 40.02075195 C-0.57006618 38.30720542 -3.0439854 36.63648508 -5.52539062 34.97070312 C-7.10318095 33.89560053 -8.67941158 32.8182046 -10.25390625 31.73828125 C-10.9882338 31.23911697 -11.72256134 30.7399527 -12.47914124 30.22566223 C-16.2755183 27.55222478 -19.04494953 25.35401456 -21 21 C-21.82885269 15.45191396 -21.7240695 10.52859117 -19.3125 5.4375 C-13.67891548 -0.5006026 -7.88764328 -1.79594599 0 0 Z " fill="#a476ff" transform="translate(21,50)"/>
<path d="M0 0 C0.91092911 -0.00524185 1.82185822 -0.0104837 2.76039124 -0.0158844 C4.68261701 -0.02229391 6.60488207 -0.02098148 8.52709961 -0.01245117 C11.45953608 -0.00394431 14.39002157 -0.03271196 17.32226562 -0.06445312 C19.19400984 -0.06606545 21.06575748 -0.06548702 22.9375 -0.0625 C23.80954575 -0.07373398 24.68159149 -0.08496796 25.58006287 -0.09654236 C31.05135915 -0.03427472 34.19909883 0.78346157 38.53515625 4.43359375 C42.59146023 9.65619232 42.30913169 15.08699517 41.53515625 21.43359375 C39.36231821 26.02069627 37.0980721 28.30503943 32.53515625 30.43359375 C29.37932795 30.8790101 26.25358663 30.8778788 23.0703125 30.8671875 C22.15938339 30.87242935 21.24845428 30.8776712 20.30992126 30.8830719 C18.38769549 30.88948141 16.46543043 30.88816898 14.54321289 30.87963867 C11.61077642 30.87113181 8.68029093 30.89989946 5.74804688 30.93164062 C3.87630266 30.93325295 2.00455502 30.93267452 0.1328125 30.9296875 C-0.73923325 30.94092148 -1.61127899 30.95215546 -2.50975037 30.96372986 C-7.98104665 30.90146222 -11.12878633 30.08372593 -15.46484375 26.43359375 C-19.52114773 21.21099518 -19.23881919 15.78019233 -18.46484375 9.43359375 C-14.42692708 0.90910299 -8.62686886 -0.02897407 0 0 Z " fill="#a476ff" transform="translate(470.46484375,184.56640625)"/>
<path d="M0 0 C0.91092911 -0.00524185 1.82185822 -0.0104837 2.76039124 -0.0158844 C4.68261701 -0.02229391 6.60488207 -0.02098148 8.52709961 -0.01245117 C11.45953608 -0.00394431 14.39002157 -0.03271196 17.32226562 -0.06445312 C19.19400984 -0.06606545 21.06575748 -0.06548702 22.9375 -0.0625 C23.80954575 -0.07373398 24.68159149 -0.08496796 25.58006287 -0.09654236 C31.05135915 -0.03427472 34.19909883 0.78346157 38.53515625 4.43359375 C42.59146023 9.65619232 42.30913169 15.08699517 41.53515625 21.43359375 C39.36231821 26.02069627 37.0980721 28.30503943 32.53515625 30.43359375 C29.37932795 30.8790101 26.25358663 30.8778788 23.0703125 30.8671875 C22.15938339 30.87242935 21.24845428 30.8776712 20.30992126 30.8830719 C18.38769549 30.88948141 16.46543043 30.88816898 14.54321289 30.87963867 C11.61077642 30.87113181 8.68029093 30.89989946 5.74804688 30.93164062 C3.87630266 30.93325295 2.00455502 30.93267452 0.1328125 30.9296875 C-0.73923325 30.94092148 -1.61127899 30.95215546 -2.50975037 30.96372986 C-7.98104665 30.90146222 -11.12878633 30.08372593 -15.46484375 26.43359375 C-19.52114773 21.21099518 -19.23881919 15.78019233 -18.46484375 9.43359375 C-14.42692708 0.90910299 -8.62686886 -0.02897407 0 0 Z " fill="#a476ff" transform="translate(18.46484375,184.56640625)"/>
</svg>
