<svg xmlns="http://www.w3.org/2000/svg" fill="none" viewBox="0 0 100 100" id="Java--Streamline-Svg-Logos" height="100" width="100">
  <desc>
    Java Streamline Icon: https://streamlinehq.com
  </desc>
  <path fill="#5382a1" d="M37.150104166666665 76.76604166666668s-3.7417708333333333 2.176041666666667 2.662916666666667 2.9123958333333335c7.759166666666667 0.8851041666666667 11.724791666666668 0.7582291666666667 20.27541666666667 -0.8601041666666667 0 0 2.248020833333334 1.4095833333333334 5.387604166666668 2.6304166666666666 -19.168229166666666 8.215208333333333 -43.3815625 -0.47583333333333333 -28.325937500000002 -4.682708333333334Z" stroke-width="1.0417"></path>
  <path fill="#5382a1" d="M34.807916666666664 66.04593750000001s-4.196770833333334 3.1065625000000003 2.2127083333333335 3.769479166666667c8.288541666666667 0.8551041666666667 14.834270833333335 0.925 26.16072916666667 -1.2559375000000002 0 0 1.5666666666666669 1.5882291666666668 4.03 2.456770833333333 -23.175520833333334 6.776875 -48.988958333333336 0.534375 -32.4034375 -4.9703125Z" stroke-width="1.0417"></path>
  <path fill="#e76f00" d="M54.55385416666667 47.860625c4.723020833333333 5.437708333333334 -1.2409375 10.331041666666668 -1.2409375 10.331041666666668s11.992604166666668 -6.191041666666667 6.484895833333334 -13.943541666666667c-5.143958333333334 -7.229791666666667 -9.08875 -10.821875 12.266666666666667 -23.20729166666667 0 0 -33.5209375 8.371979166666668 -17.510625 26.819791666666667Z" stroke-width="1.0417"></path>
  <path fill="#5382a1" d="M79.90531250000001 84.69552083333333s2.7689583333333334 2.2815625 -3.0495833333333335 4.046666666666667c-11.064166666666669 3.351770833333333 -46.050312500000004 4.363854166666667 -55.76927083333334 0.1335416666666667 -3.4937500000000004 -1.5198958333333334 3.057916666666667 -3.629166666666667 5.118854166666668 -4.071666666666667 2.1493750000000005 -0.46614583333333337 3.377604166666667 -0.37927083333333333 3.377604166666667 -0.37927083333333333 -3.8853125000000004 -2.7370833333333335 -25.113489583333337 5.374375000000001 -10.7828125 7.697395833333334 39.081875000000004 6.337916666666667 71.24249999999999 -2.8539583333333334 61.10520833333334 -7.426666666666667Z" stroke-width="1.0417"></path>
  <path fill="#5382a1" d="M38.9496875 54.93812500000001s-17.796145833333334 4.226979166666667 -6.302083333333334 5.761875c4.853125 0.6497916666666668 14.527812500000001 0.5028125000000001 23.539583333333333 -0.2522916666666667 7.364791666666667 -0.6212500000000001 14.760000000000002 -1.9421875000000002 14.760000000000002 -1.9421875000000002s-2.5968750000000003 1.1121875 -4.475729166666667 2.395104166666667c-18.07166666666667 4.752812500000001 -52.98291666666667 2.5417708333333335 -42.93239583333334 -2.3198958333333337 8.499687500000002 -4.108645833333334 15.410625000000001 -3.642604166666667 15.410625000000001 -3.642604166666667Z" stroke-width="1.0417"></path>
  <path fill="#5382a1" d="M70.87343750000001 72.78270833333333c18.370729166666667 -9.546145833333334 9.876875 -18.719895833333336 3.9482291666666667 -17.483958333333337 -1.4531250000000002 0.30239583333333336 -2.1010416666666667 0.5644791666666668 -2.1010416666666667 0.5644791666666668s0.5394791666666667 -0.8451041666666668 1.5697916666666667 -1.2108333333333334c11.728750000000002 -4.1234375000000005 20.748854166666668 12.1615625 -3.7861458333333338 18.61135416666667 0 0 0.2841666666666667 -0.25385416666666666 0.3691666666666667 -0.4810416666666667Z" stroke-width="1.0417"></path>
  <path fill="#e76f00" d="M59.79760416666667 1.0416666666666667s10.1740625 10.177395833333335 -9.649583333333334 25.827395833333334c-15.896458333333335 12.5540625 -3.624895833333334 19.71197916666667 -0.006562500000000001 27.890208333333334 -9.2790625 -8.371979166666668 -16.088645833333334 -15.741770833333334 -11.520208333333334 -22.601041666666667C45.3265625 22.089583333333334 63.90260416666667 17.20791666666667 59.79760416666667 1.0416666666666667Z" stroke-width="1.0417"></path>
  <path fill="#5382a1" d="M40.7546875 98.65052083333333c17.63354166666667 1.12875 44.711979166666666 -0.6263541666666667 45.353229166666665 -8.97 0 0 -1.2327083333333335 3.163020833333334 -14.573229166666668 5.675000000000001 -15.050625000000002 2.832291666666667 -33.6134375 2.501666666666667 -44.62322916666667 0.6864583333333334 0 0 2.2538541666666667 1.8653125000000002 13.843229166666667 2.608541666666667Z" stroke-width="1.0417"></path>
</svg>