<?xml version="1.0" encoding="UTF-8"?>
<svg version="1.1" xmlns="http://www.w3.org/2000/svg" width="512" height="512">
<path d="M0 0 C1.89891665 -0.00461248 3.79782973 -0.01096772 5.69673538 -0.01890898 C10.89965741 -0.0355777 16.10228524 -0.02736701 21.30520821 -0.0149641 C26.92220153 -0.00590593 32.53914462 -0.01988717 38.15612793 -0.03088379 C49.15381592 -0.04866535 60.15139469 -0.0448306 71.14908695 -0.03323323 C80.0875596 -0.02419777 89.02600164 -0.0229754 97.96447754 -0.02732849 C99.23690158 -0.02794142 100.50932562 -0.02855436 101.82030797 -0.02918586 C104.40525533 -0.03046477 106.99020267 -0.03176162 109.57515001 -0.03307623 C133.12040645 -0.04415589 156.66558972 -0.03266806 180.21083385 -0.01170584 C201.69494977 0.00727594 223.17897084 0.0055774 244.66308594 -0.0135498 C268.81275109 -0.03497838 292.96234883 -0.04338234 317.11202621 -0.03110075 C319.68743641 -0.02982656 322.26284662 -0.02856908 324.83825684 -0.02732849 C326.73895742 -0.02640284 326.73895742 -0.02640284 328.678056 -0.02545848 C337.60524853 -0.02200555 346.53240741 -0.02783273 355.45959473 -0.0372467 C366.33963581 -0.04846787 377.21956147 -0.04542405 388.09958935 -0.02412373 C393.65019267 -0.01361502 399.20060357 -0.00948862 404.75120544 -0.02272034 C409.83395931 -0.03465349 414.91634268 -0.02806616 419.99906301 -0.00681013 C421.83607286 -0.00234802 423.67311411 -0.00460151 425.5101037 -0.01431328 C438.17056892 -0.07610349 448.1763529 0.71168603 457.72167969 9.79699707 C466.97649002 19.22398992 467.99207756 29.17637397 467.90930176 41.87963867 C467.91391661 43.42794839 467.92027344 44.97625371 467.92821074 46.52454996 C467.94484705 50.75836097 467.9366838 54.99180947 467.92426586 59.22562146 C467.91519426 63.79966466 467.92919555 68.37364667 467.94018555 72.94767761 C467.95795285 81.89997887 467.95413875 90.85214582 467.94253498 99.8044523 C467.9334939 107.08150417 467.93227959 114.35851846 467.93663025 121.63557434 C467.93724318 122.67209268 467.93785611 123.70861101 467.93848762 124.776539 C467.93976655 126.88234136 467.9410634 128.9881437 467.94237798 131.09394604 C467.95377855 150.83053905 467.94067829 170.5670577 467.91917652 190.30363852 C467.90130602 207.23098668 467.90441028 224.15822511 467.92285156 241.08557129 C467.94426751 260.75253083 467.95267996 280.41942522 467.94040251 300.08639479 C467.93912834 302.18436145 467.93787086 304.28232812 467.93663025 306.3802948 C467.93601315 307.41247915 467.93539604 308.4446635 467.93476024 309.50812617 C467.93130952 316.77470523 467.9371297 324.0412429 467.94654846 331.30781555 C467.95777786 340.16583784 467.95470857 349.02371838 467.93342549 357.88172448 C467.92292777 362.39945661 467.91877141 366.91695257 467.93202209 371.43468285 C467.94397836 375.57375139 467.93733049 379.7123658 467.91611189 383.8513934 C467.91165948 385.34520146 467.91388139 386.83904822 467.92361504 388.3328312 C467.99711134 400.55351967 466.14717575 409.499233 457.54589844 418.53137207 C450.62297556 424.91206237 443.28428247 427.76415114 433.78907776 427.7484436 C432.50050369 427.75119293 431.21192963 427.75394226 429.88430786 427.7567749 C428.47405911 427.74969844 427.06381132 427.74242884 425.65356445 427.73498535 C424.15501412 427.73442065 422.65646322 427.73473894 421.15791321 427.73587036 C417.10468908 427.73644259 413.05158409 427.72470933 408.99838758 427.71072245 C404.7569828 427.69819343 400.51557509 427.69704288 396.27415466 427.69467163 C388.24910335 427.68846324 380.22410672 427.6720611 372.19907945 427.65197265 C363.06004187 427.6295937 353.92100162 427.6186152 344.78194344 427.60858178 C325.98838705 427.5876943 307.19488152 427.55253079 288.40136719 427.50793457 C288.53782721 430.39109955 288.68065999 433.2737136 288.82714844 436.15637207 C288.88376648 437.37344849 288.88376648 437.37344849 288.94152832 438.6151123 C289.4480507 448.35516703 291.32730709 456.41997651 298.40136719 463.50793457 C301.29789159 465.84020097 304.26918423 468.03049201 307.28417969 470.20715332 C310.31784925 472.44629038 313.18772412 474.77720736 316.02636719 477.25793457 C316.82300781 477.95402832 317.61964844 478.65012207 318.44042969 479.36730957 C322.84568418 484.1762328 322.84791932 489.25122483 322.70214844 495.50402832 C322.16761294 500.84244128 320.52887695 504.26601468 316.84580994 508.14714432 C309.09841003 514.33985395 299.92294883 513.35120558 290.53027344 513.28430176 C288.61252652 513.29244021 286.69478899 513.30312791 284.77706909 513.31616211 C279.58684524 513.34343874 274.39733961 513.33294183 269.20710373 513.3138876 C263.76606107 513.29865777 258.32507838 513.31279575 252.8840332 513.32220459 C243.74809775 513.33310913 234.61245368 513.3187646 225.4765625 513.29016113 C214.92616074 513.25750968 204.37645474 513.26808748 193.82606983 513.30111957 C184.75484941 513.32837981 175.683838 513.33217386 166.61258984 513.31648755 C161.20036101 513.3071511 155.78845884 513.30583735 150.37625122 513.32570648 C145.28696376 513.34308628 140.19857009 513.33093072 135.10937881 513.29634094 C133.24582526 513.28843248 131.382196 513.2906431 129.51867294 513.30391693 C112.5299563 513.4137365 112.5299563 513.4137365 105.95692444 508.09221268 C101.09802959 503.14360618 100.16566086 499.77537436 99.96386719 492.94543457 C100.20562337 485.91032974 101.76522243 481.9165971 106.78930664 476.9576416 C110.8536779 473.30260048 115.39255376 470.15802032 119.80761719 466.94348145 C127.70440889 460.98798437 131.48596801 455.26756206 133.40136719 445.50793457 C133.74627314 442.34446965 133.90210771 439.18690624 134.02636719 436.00793457 C134.06503906 435.1855127 134.10371094 434.36309082 134.14355469 433.51574707 C134.23668411 431.51346447 134.32005704 429.51073195 134.40136719 427.50793457 C133.62721781 427.51162174 132.85306843 427.51530891 132.05545998 427.51910782 C113.19183786 427.60756402 94.32825731 427.67369528 75.46447182 427.71518326 C66.34196128 427.73578141 57.21958946 427.76384931 48.09716797 427.80969238 C40.14319811 427.84964445 32.18932874 427.87538734 24.23526132 427.88428855 C20.02619695 427.88948917 15.81742 427.90165478 11.60844803 427.9308548 C7.64068024 427.95815648 3.67331621 427.96635006 -0.29453659 427.9603653 C-1.74488525 427.96145898 -3.19524847 427.96932485 -4.64551544 427.98475647 C-16.85683834 428.10823592 -26.49270789 426.00679783 -35.59863281 417.50793457 C-44.30935944 407.98736714 -45.04111517 398.85902348 -44.98631287 386.3767395 C-44.99048875 384.83015792 -44.99596767 383.2835794 -45.00263268 381.73700655 C-45.0170727 377.49873597 -45.01284709 373.26066009 -45.00546587 369.02237892 C-45.00073291 364.44694321 -45.0132452 359.87154953 -45.02348328 355.29612732 C-45.04067426 346.33689135 -45.04151064 337.3777255 -45.03627037 328.41847731 C-45.0322279 321.13566073 -45.03367315 313.85286487 -45.03901863 306.57004929 C-45.03976705 305.53325997 -45.04051548 304.49647065 -45.04128658 303.42826348 C-45.04281806 301.32197806 -45.04435641 299.21569264 -45.04590154 297.10940723 C-45.05962774 277.3594854 -45.05418811 257.60960318 -45.04271633 237.85968225 C-45.03278445 219.7961989 -45.04572365 201.732818 -45.06965052 183.66935046 C-45.09404026 165.11649465 -45.10364966 146.56368655 -45.0969978 128.01081502 C-45.09350522 117.59690775 -45.09574017 107.18307926 -45.11324883 96.76918411 C-45.12796923 87.9038008 -45.12860835 79.03855173 -45.11117791 70.17317106 C-45.10266413 65.65139753 -45.1005276 61.12986384 -45.11582947 56.6081028 C-45.1296753 52.46526159 -45.12491489 48.32286573 -45.10559023 44.1800503 C-45.10182957 42.68483333 -45.10475414 41.1895807 -45.11520188 39.6943955 C-45.19154576 27.9280576 -43.61668426 18.91534938 -35.30957031 10.18762207 C-24.96114006 0.02820424 -13.74480967 -0.07266586 0 0 Z M-23.91113281 25.13293457 C-26.38924209 28.62064393 -26.72338057 30.38703528 -26.72168064 34.62664986 C-26.72367151 35.71779469 -26.72566238 36.80893951 -26.72771358 37.93314934 C-26.72480092 39.14095621 -26.72188826 40.34876308 -26.71888733 41.59317017 C-26.71974335 42.86585754 -26.72059937 44.13854492 -26.72148132 45.44979858 C-26.72373319 49.00110834 -26.71969878 52.55238816 -26.71470554 56.10369411 C-26.71035362 59.98508327 -26.71179918 63.86647094 -26.71252346 67.74786186 C-26.71305617 75.28986883 -26.70842866 82.83186394 -26.70202213 90.37386786 C-26.69483619 99.09360678 -26.69402815 107.81333852 -26.6932373 116.53308105 C-26.687982 139.56636745 -26.67402096 162.59965118 -26.66113281 185.63293457 C-26.64050781 237.07168457 -26.61988281 288.51043457 -26.59863281 341.50793457 C130.48136719 341.50793457 287.56136719 341.50793457 449.40136719 341.50793457 C449.48386719 290.15168457 449.56636719 238.79543457 449.65136719 185.88293457 C449.6877832 169.64896484 449.72419922 153.41499512 449.76171875 136.68908691 C449.77509398 122.17537096 449.77509398 122.17537096 449.78314209 107.66165161 C449.78687851 101.18185652 449.80157756 94.70219873 449.82366943 88.22244263 C449.84909912 80.75265659 449.86071843 73.28300264 449.85514699 65.81317297 C449.85273325 61.99053503 449.85660744 58.16819247 449.87822771 54.34560847 C449.90122403 50.25493643 449.89336151 46.16490994 449.88238525 42.07418823 C449.89403591 40.87803202 449.90568657 39.6818758 449.91769028 38.44947243 C449.87213989 32.16267696 449.69178148 28.25099691 445.40136719 23.50793457 C440.44027515 19.13744873 437.54562884 18.36042001 431.08174515 18.37371349 C430.31471339 18.37136126 429.54768162 18.36900903 428.75740647 18.36658552 C426.16013612 18.35987291 423.56291553 18.36035442 420.96563721 18.36076355 C419.09552711 18.35746633 417.22541772 18.35374107 415.35530925 18.34962207 C410.19509605 18.33957781 405.03489448 18.33588139 399.87467289 18.33323276 C394.31761744 18.3293369 388.76057127 18.3197581 383.20352173 18.3110199 C369.77299163 18.29123545 356.34246075 18.28118691 342.91191971 18.27229211 C336.59281688 18.26791257 330.2737149 18.26254491 323.95461273 18.25730324 C302.95815336 18.24028921 281.96169415 18.22576895 260.96522903 18.2185545 C259.60693015 18.21807974 258.24863127 18.21760385 256.89033239 18.21712684 C255.87992414 18.21677227 255.87992414 18.21677227 254.84910361 18.21641054 C251.43618625 18.21520932 248.02326891 18.21399388 244.61035156 18.21276855 C243.59438918 18.21240833 243.59438918 18.21240833 242.5579023 18.21204083 C220.59335975 18.20414627 198.62887116 18.18071179 176.66435218 18.14821261 C153.45140751 18.11392884 130.23849312 18.09420586 107.02551913 18.09091026 C94.36816713 18.08874192 81.71089444 18.07994607 69.05356598 18.05444908 C58.27643884 18.03279019 47.49941028 18.02466791 36.72226384 18.03441586 C31.22080567 18.0389745 25.7195511 18.03698376 20.21812057 18.01765442 C15.18461933 18.00012142 10.1514717 18.00093984 5.11796722 18.01655171 C3.2942403 18.01894285 1.47048952 18.0145269 -0.35320076 18.00272306 C-2.82778255 17.98769479 -5.30109666 17.99721285 -7.77564621 18.01294994 C-8.84370479 17.99761663 -8.84370479 17.99761663 -9.93334031 17.98197356 C-16.22270582 18.06957932 -19.83955795 20.51114689 -23.91113281 25.13293457 Z M-26.59863281 359.50793457 C-30.20418409 394.30145808 -30.20418409 394.30145808 -22.59863281 404.50793457 C-17.5548082 409.05967873 -13.78243509 409.65582956 -7.189991 409.64215565 C-6.42548173 409.64450788 -5.66097247 409.64686011 -4.87329626 409.64928362 C-2.29061849 409.65598377 0.29200908 409.65551509 2.87469482 409.65510559 C4.73670569 409.65840358 6.59871584 409.662129 8.46072507 409.66624707 C13.59394516 409.67628249 18.72715356 409.67998633 23.86038208 409.68263638 C29.39017231 409.68653482 34.91995324 409.69611342 40.44973755 409.70484924 C53.81163074 409.72462582 67.17352471 409.734681 80.53542888 409.74357703 C86.82351854 409.74795764 93.11160736 409.75332501 99.39969635 409.7585659 C120.29496958 409.77557874 141.19024265 409.79009894 162.0855217 409.79731464 C163.43703078 409.7977894 164.78853986 409.79826529 166.14004894 409.79874231 C166.81028151 409.79897868 167.48051408 409.79921506 168.17105673 409.7994586 C171.5668373 409.80065981 174.96261787 409.80187525 178.35839844 409.80310059 C179.03230336 409.80334074 179.70620829 409.80358089 180.40053457 409.80382831 C202.25440081 409.81172276 224.1082128 409.83515761 245.96205535 409.86765653 C269.06199007 409.90194587 292.16189939 409.92166378 315.26186299 409.92495888 C327.85607495 409.92712666 340.45020717 409.93591449 353.04439545 409.96142006 C363.76767112 409.9830862 374.49084769 409.9911976 385.21414277 409.98145328 C390.68737847 409.97689684 396.16040953 409.97887281 401.6336174 409.99821472 C406.64245927 410.01576311 411.65094594 410.01491658 416.65979114 409.99931743 C418.47341184 409.99692867 420.2870566 410.00133016 422.10064039 410.01314608 C424.56398066 410.02820334 427.02605226 410.01863611 429.48936081 410.0029192 C430.19527831 410.0131414 430.90119581 410.02336361 431.62850475 410.03389558 C437.03323879 409.95851255 440.03221981 408.46295282 444.40136719 405.50793457 C456.60085405 392.0242912 449.40136719 385.00823171 449.40136719 359.50793457 C292.32136719 359.50793457 135.24136719 359.50793457 -26.59863281 359.50793457 Z M152.40136719 427.50793457 C152.07136719 434.10793457 151.74136719 440.70793457 151.40136719 447.50793457 C148.71876626 463.60354014 141.27028521 474.41373785 128.15136719 483.82043457 C126.72857209 484.85693315 125.30665581 485.89463947 123.88574219 486.93371582 C123.2640918 487.38142334 122.64244141 487.82913086 122.00195312 488.29040527 C120.26317766 489.55633211 120.26317766 489.55633211 118.40136719 491.50793457 C118.40136719 492.49793457 118.40136719 493.48793457 118.40136719 494.50793457 C179.78136719 494.50793457 241.16136719 494.50793457 304.40136719 494.50793457 C303.22421364 489.79932037 302.13028088 489.11123791 298.40136719 486.19543457 C297.40621094 485.4039502 296.41105469 484.61246582 295.38574219 483.79699707 C293.58141171 482.41304725 291.76228437 481.04771455 289.91699219 479.71887207 C278.78110692 471.61655555 273.6337343 460.90213726 271.40136719 447.50793457 C271.07136719 440.90793457 270.74136719 434.30793457 270.40136719 427.50793457 C231.46136719 427.50793457 192.52136719 427.50793457 152.40136719 427.50793457 Z " fill="#a476ff" transform="translate(44.5986328125,-0.5079345703125)"/>
<path d="M0 0 C1.06950571 -0.00352835 1.06950571 -0.00352835 2.16061759 -0.00712797 C4.57410008 -0.01383873 6.98752899 -0.01335913 9.40102005 -0.01294994 C11.1391366 -0.01624728 12.87725238 -0.01997257 14.61536717 -0.02409142 C19.41073009 -0.03413437 24.2060805 -0.03783189 29.00145245 -0.04048073 C34.16586657 -0.04437699 39.33027072 -0.05395576 44.4946785 -0.0626936 C56.97599718 -0.08247701 69.4573167 -0.09252649 81.93864715 -0.10142139 C87.81145333 -0.10580112 93.6842586 -0.11116873 99.55706406 -0.11641026 C119.07118289 -0.13342423 138.58530115 -0.14791948 158.09942627 -0.155159 C163.16604234 -0.157069 168.2326584 -0.15898931 173.29927444 -0.16094494 C175.1882763 -0.16167055 175.1882763 -0.16167055 177.1154398 -0.16241082 C197.52611132 -0.1707151 217.9367243 -0.196058 238.34737024 -0.22852562 C259.28659349 -0.26156342 280.22578697 -0.27960478 301.16503644 -0.28280324 C312.92812938 -0.28497135 324.69113696 -0.29376402 336.45420456 -0.31926441 C346.47009943 -0.34092663 356.48588821 -0.34904394 366.50180385 -0.33929763 C371.61441672 -0.33473994 376.72681051 -0.33672419 381.83939362 -0.35605907 C386.5176225 -0.37359893 391.19547099 -0.37276808 395.87370339 -0.35716178 C397.56822557 -0.35477169 399.26277346 -0.35918131 400.95725617 -0.37099043 C403.25760372 -0.38603187 405.55658988 -0.37649213 407.85690308 -0.36076355 C409.77476313 -0.36222876 409.77476313 -0.36222876 411.73136783 -0.36372358 C416.98798298 0.39524453 420.04033499 2.84039538 423.49263382 6.75922108 C425.79506108 9.99967426 426.30570333 11.63023132 426.3143549 15.54621887 C426.31881274 16.47943409 426.32327058 17.41264931 426.32786351 18.37414378 C426.32758697 19.92240421 426.32758697 19.92240421 426.32730484 21.50194263 C426.33098153 22.59310456 426.33465822 23.68426648 426.33844632 24.80849391 C426.34951894 28.48958407 426.35333305 32.17064603 426.35713577 35.85175037 C426.36339772 38.48104919 426.37004428 41.11034711 426.37704849 43.73964405 C426.39682422 51.64843771 426.40688106 59.55723267 426.41577628 67.46604487 C426.42015785 71.18942535 426.42552505 74.91280439 426.43076515 78.63618374 C426.44777945 91.01224663 426.4622735 103.38830862 426.46951389 115.76438141 C426.47142383 118.97709816 426.47334415 122.1898149 426.47529984 125.40253162 C426.47578358 126.20104921 426.47626732 126.99956679 426.47676571 127.82228187 C426.48506553 140.7569895 426.51040069 153.69160463 426.54288051 166.62627187 C426.57594741 179.90288655 426.59396236 193.17945422 426.59715813 206.4561103 C426.59932371 213.91170981 426.60807905 221.36717448 426.63361931 228.82273388 C426.65532141 235.17261478 426.66337926 241.5223281 426.65365253 247.87224188 C426.64910612 251.1116744 426.65319301 254.35068878 426.67041397 257.59008884 C426.68805131 261.10421279 426.68106588 264.61745743 426.66788101 268.13158131 C426.67885026 269.15260132 426.6898195 270.17362133 426.70112115 271.22558135 C426.64508995 277.40439591 425.84588285 281.10252452 422.18013382 286.13422108 C416.43988405 290.67858548 412.38979163 291.2585376 405.21066952 291.26564884 C404.15334704 291.26872779 404.15334704 291.26872779 403.0746645 291.27186894 C400.70084254 291.27754597 398.32707846 291.27608083 395.95325089 291.27466297 C394.23886988 291.2772462 392.52448948 291.28025924 390.81010991 291.28366637 C386.08960389 291.29174449 381.36911306 291.29352639 376.64860094 291.29426384 C371.56123278 291.29611296 366.47387253 291.30365954 361.38650894 291.31039906 C350.2585326 291.32398822 339.13055985 291.33000788 328.00257659 291.33440971 C321.05687683 291.3371709 314.11117847 291.341408 307.16547966 291.34591389 C287.94208711 291.35810684 268.71869567 291.36840641 249.49529934 291.37178898 C248.26467448 291.37200854 247.03404961 291.37222811 245.76613309 291.37245433 C244.53253534 291.37267261 243.29893759 291.37289089 242.0279581 291.37311578 C239.52814623 291.37355925 237.02833436 291.37400581 234.52852249 291.37445545 C232.66852614 291.3747876 232.66852614 291.3747876 230.77095411 291.37512645 C210.67148987 291.37907579 190.57206187 291.39653385 170.47261163 291.41981497 C149.8463334 291.44351389 129.22007336 291.45599015 108.59378129 291.4571569 C97.00899649 291.45807443 85.42425889 291.46384648 73.83948708 291.48197651 C63.9762932 291.49735772 54.11316111 291.50250963 44.24995752 291.49423841 C39.2162286 291.49032501 34.18262421 291.49129511 29.14891052 291.50529575 C24.54169457 291.51799317 19.93469725 291.51687385 15.32748178 291.50470504 C13.65992183 291.50274083 11.99234661 291.50585978 10.32480814 291.5145494 C8.05864683 291.52561173 5.79326125 291.51817528 3.52712154 291.50615788 C2.26823862 291.50675496 1.00935569 291.50735205 -0.2876752 291.50796723 C-6.91068486 290.80717715 -11.45133081 288.25164822 -15.81986618 283.13422108 C-17.61605898 280.13877377 -18.07108334 277.94991371 -18.07713509 274.47333431 C-18.08358398 273.5355203 -18.09003287 272.59770628 -18.09667718 271.63147366 C-18.09357998 270.6044436 -18.09048278 269.57741354 -18.08729172 268.51926136 C-18.09182283 267.42568502 -18.09635394 266.33210869 -18.10102236 265.20539367 C-18.11371812 261.52814387 -18.11204265 257.8510412 -18.11039352 254.17377186 C-18.11637551 251.5425545 -18.12318029 248.91133889 -18.13074875 246.28012562 C-18.14736486 239.86707744 -18.15285856 233.45406602 -18.1539735 227.04099812 C-18.15492366 221.82851522 -18.15903234 216.61604446 -18.16537476 211.40356541 C-18.18298861 196.62712821 -18.19221337 181.85072006 -18.19071381 167.07427229 C-18.1906339 166.27759543 -18.19055398 165.48091857 -18.19047165 164.66009998 C-18.19038989 163.86245109 -18.19030813 163.0648022 -18.19022389 162.24298213 C-18.18941088 149.31418686 -18.20855183 136.38550806 -18.23674838 123.45674647 C-18.26546805 110.18345689 -18.27928919 96.91022414 -18.27756083 83.63690269 C-18.27689662 76.18416766 -18.28240228 68.73155475 -18.30391693 61.27884769 C-18.32211669 54.93373507 -18.32648609 48.58879991 -18.31289808 42.24367251 C-18.30636223 39.00638194 -18.30844126 35.76950314 -18.32360458 32.53223133 C-18.33898251 29.02223054 -18.32979719 25.51312876 -18.3143425 22.00314808 C-18.32462963 20.98057946 -18.33491675 19.95801085 -18.34551561 18.9044553 C-18.28919369 13.12976658 -17.75166538 9.67807778 -13.81986618 5.13422108 C-8.91806203 0.81596504 -6.5048586 0.00910414 0 0 Z M0.18013382 18.13422108 C0.18013382 102.28422108 0.18013382 186.43422108 0.18013382 273.13422108 C134.82013382 273.13422108 269.46013382 273.13422108 408.18013382 273.13422108 C408.18013382 188.98422108 408.18013382 104.83422108 408.18013382 18.13422108 C273.54013382 18.13422108 138.90013382 18.13422108 0.18013382 18.13422108 Z " fill="#a476ff" transform="translate(51.81986618041992,33.86577892303467)"/>
<path d="M0 0 C2.57171294 2.25074414 5.03292785 4.57586439 7.47265625 6.96875 C8.24738281 7.70738281 9.02210938 8.44601563 9.8203125 9.20703125 C23.53223174 23.20118554 29.73267758 43.30420793 29.72143555 62.55957031 C29.39665806 83.07429196 20.81050588 102.53393412 6.49609375 117.140625 C-1.21313442 124.59203636 -10.47782994 130.27487465 -20.52734375 133.96875 C-22.08195312 134.5565625 -22.08195312 134.5565625 -23.66796875 135.15625 C-43.06248437 141.41815639 -64.71009864 139.46366477 -82.90234375 130.65625 C-88.63375606 127.63529114 -93.62549394 124.18359813 -98.52734375 119.96875 C-99.49800781 119.1953125 -100.46867187 118.421875 -101.46875 117.625 C-115.2706369 106.093816 -122.57773069 88.27603471 -125.21484375 70.90625 C-126.9273615 49.32852635 -121.9426001 29.19790695 -108.29296875 12.18359375 C-106.11215967 9.69070337 -103.86698633 7.31254825 -101.52734375 4.96875 C-100.91503906 4.34484375 -100.30273438 3.7209375 -99.671875 3.078125 C-72.98321435 -22.18789916 -28.31091622 -22.75375029 0 0 Z M-72.52734375 6.96875 C-70.92942905 11.73494385 -68.27456545 15.46732571 -65.40234375 19.53125 C-64.40297728 20.96437778 -63.40428417 22.39797533 -62.40625 23.83203125 C-61.91527832 24.53537598 -61.42430664 25.2387207 -60.91845703 25.96337891 C-59.02501987 28.69287923 -57.17827318 31.45196853 -55.33984375 34.21875 C-54.72222168 35.09829346 -54.10459961 35.97783691 -53.46826172 36.8840332 C-51.52734375 39.96875 -51.52734375 39.96875 -50.37182617 43.12890625 C-48.71359015 46.96122119 -47.1502652 49.83664576 -43.52734375 51.96875 C-34.63650806 54.09105526 -25.07759345 53.08612036 -16.02734375 52.71875 C-13.46236357 52.65852704 -10.89724861 52.60377944 -8.33203125 52.5546875 C-2.06085323 52.42274875 4.20527897 52.22227352 10.47265625 51.96875 C10.00203054 50.03991102 9.52828791 48.11183237 9.05322266 46.18408203 C8.65799911 44.57341354 8.65799911 44.57341354 8.25479126 42.9302063 C5.58061172 32.80476027 -0.1817241 25.22320061 -7.52734375 17.96875 C-8.06875 17.40542969 -8.61015625 16.84210938 -9.16796875 16.26171875 C-20.33063955 5.57825351 -36.59444423 1.32214133 -51.62109375 1.6015625 C-58.63651385 2.26101199 -66.19715725 3.80365675 -72.52734375 6.96875 Z M-88.52734375 17.96875 C-100.36196642 29.85597099 -106.74454074 43.40908964 -107.58203125 60.1953125 C-107.34228283 76.73795338 -101.26188742 92.09379299 -89.52734375 103.96875 C-81.00566446 111.51134273 -71.97141803 116.60121876 -60.8347168 119.02954102 C-60.02721481 119.20638931 -59.21971283 119.38323761 -58.38774109 119.56544495 C-57.77380997 119.69853561 -57.15987885 119.83162628 -56.52734375 119.96875 C-52.58972925 82.90948271 -55.20553358 58.23438816 -78.890625 28.69921875 C-81.97067653 24.98040667 -85.07904991 21.35193101 -88.52734375 17.96875 Z M-38.52734375 69.96875 C-38.52734375 86.13875 -38.52734375 102.30875 -38.52734375 118.96875 C-23.17681838 117.04993433 -11.12318005 109.89047569 -1.08984375 98.15625 C5.44408094 89.35686305 8.32811615 80.69145048 10.47265625 69.96875 C-5.69734375 69.96875 -21.86734375 69.96875 -38.52734375 69.96875 Z " fill="#a476ff" transform="translate(201.52734375,118.03125)"/>
<path d="M0 0 C1.20720703 -0.03738281 2.41441406 -0.07476562 3.65820312 -0.11328125 C11.03456943 -0.18587534 16.17445131 0.37897297 21.8125 5.375 C25.31656127 9.21816397 25.93686009 12.56850365 25.95967102 17.6686554 C25.96682632 18.76636261 25.97398163 19.86406982 25.98135376 20.99504089 C25.98404266 22.19977554 25.98673157 23.40451019 25.98950195 24.64575195 C25.99935875 26.54852905 25.99935875 26.54852905 26.00941467 28.48974609 C26.03043545 32.69757832 26.04081464 36.90541083 26.05078125 41.11328125 C26.05482943 42.56280219 26.05894638 44.01232294 26.06313133 45.46184349 C26.08217802 52.27166147 26.09641059 59.08146864 26.1047433 65.89130813 C26.11451661 73.74836551 26.14084046 81.60514124 26.18124419 89.46209937 C26.21141436 95.53778964 26.22621299 101.61339919 26.22952431 107.68916291 C26.23187364 111.31678563 26.24081841 114.94410728 26.26598549 118.57164955 C26.29361869 122.61996798 26.28943239 126.6676577 26.2824707 130.71606445 C26.29528076 131.91472641 26.30809082 133.11338837 26.32128906 134.34837341 C26.28166226 140.66101719 26.12923263 144.61609995 21.8125 149.375 C15.47160882 154.96102318 10.92532895 154.62104529 2.65600586 154.67016602 C0.64999427 154.68728668 -1.35573089 154.73117119 -3.36132812 154.77539062 C-15.56070426 154.85544711 -15.56070426 154.85544711 -21.1875 150.375 C-25.21050725 145.29330663 -26.30501095 141.51554221 -26.33467102 135.16436768 C-26.34182632 134.11024689 -26.34898163 133.0561261 -26.35635376 131.97006226 C-26.35904266 130.81881866 -26.36173157 129.66757507 -26.36450195 128.48144531 C-26.37107315 127.26476166 -26.37764435 126.048078 -26.38441467 124.79452515 C-26.40414187 120.76405592 -26.41581252 116.73362644 -26.42578125 112.703125 C-26.42983067 111.31277192 -26.43394764 109.92241903 -26.43813133 108.53206635 C-26.45717232 101.99882665 -26.47140555 95.46559818 -26.4797433 88.93233609 C-26.48951154 81.40357603 -26.51582453 73.8751103 -26.55624419 66.34645391 C-26.58645305 60.51869312 -26.60121668 54.6910165 -26.60452431 48.86317897 C-26.60686939 45.38640815 -26.6157584 41.90995216 -26.64098549 38.43326569 C-26.668703 34.55079335 -26.66442047 30.66870515 -26.6574707 26.78613281 C-26.67668579 25.07141281 -26.67668579 25.07141281 -26.69628906 23.322052 C-26.64935242 16.12049442 -25.83697555 10.19689492 -20.70471668 4.82216263 C-14.40492772 -0.69976573 -7.95729557 0.09199186 0 0 Z M-8.1875 18.375 C-8.1875 57.315 -8.1875 96.255 -8.1875 136.375 C-2.9075 136.375 2.3725 136.375 7.8125 136.375 C7.8125 97.435 7.8125 58.495 7.8125 18.375 C2.5325 18.375 -2.7475 18.375 -8.1875 18.375 Z " fill="#a476ff" transform="translate(341.1875,101.625)"/>
<path d="M0 0 C2.00601159 -0.01712067 4.01173675 -0.06100517 6.01733398 -0.10522461 C18.3057771 -0.18586558 18.3057771 -0.18586558 23.84350586 4.29516602 C28.3106536 9.62138063 28.99472744 15.45572868 29.00463867 22.14379883 C29.01208603 23.34190941 29.01208603 23.34190941 29.01968384 24.56422424 C29.03429814 27.20892192 29.04110694 29.85355958 29.04663086 32.49829102 C29.05238378 34.33811444 29.0581415 36.17793784 29.06390381 38.01776123 C29.07441231 41.87797322 29.08025568 45.73816439 29.08374023 49.59838867 C29.08921864 54.53575164 29.11323331 59.47283796 29.14171219 64.41011429 C29.16037298 68.21232903 29.16554604 72.01447766 29.16707611 75.81673431 C29.17009639 77.63633483 29.17810379 79.45593436 29.19126129 81.27548981 C29.20839067 83.82685624 29.20642466 86.37755386 29.19995117 88.92895508 C29.21377335 90.04830193 29.21377335 90.04830193 29.22787476 91.19026184 C29.17650252 97.68113942 27.68258199 102.1731551 23.40600586 107.10766602 C17.47680484 112.16917908 12.0611662 111.66762659 4.48120117 111.66577148 C2.48201076 111.67013653 0.48297929 111.70715131 -1.51586914 111.74438477 C-2.78688477 111.74825195 -4.05790039 111.75211914 -5.36743164 111.75610352 C-7.10452393 111.76843018 -7.10452393 111.76843018 -8.87670898 111.78100586 C-14.01696674 111.01957122 -17.09341625 108.50190308 -20.46899414 104.67016602 C-23.47724135 100.43633661 -23.31683496 97.04706628 -23.33349609 91.9934082 C-23.34006729 91.13468613 -23.34663849 90.27596405 -23.35340881 89.39122009 C-23.37316385 86.5414929 -23.38480991 83.69181848 -23.39477539 80.84204102 C-23.39885092 79.86946602 -23.40292645 78.89689102 -23.40712547 77.89484406 C-23.42799659 72.74622306 -23.44229325 67.59762878 -23.45166016 62.44897461 C-23.4627209 57.13139647 -23.49711404 51.81423722 -23.53683186 46.4968071 C-23.56298307 42.40811385 -23.57135072 38.31952057 -23.57494164 34.23075104 C-23.57981222 32.27075627 -23.59143962 30.3107661 -23.60997963 28.35085297 C-23.634337 25.60506576 -23.63341219 22.86036421 -23.62646484 20.11450195 C-23.6392749 19.30699997 -23.65208496 18.49949799 -23.6652832 17.66752625 C-23.61690788 12.41313793 -22.60205159 9.48099409 -19.15649414 5.29516602 C-12.81560296 -0.29085717 -8.26932309 0.04912072 0 0 Z M-5.15649414 18.29516602 C-5.15649414 43.04516602 -5.15649414 67.79516602 -5.15649414 93.29516602 C0.12350586 93.29516602 5.40350586 93.29516602 10.84350586 93.29516602 C10.84350586 68.54516602 10.84350586 43.79516602 10.84350586 18.29516602 C5.56350586 18.29516602 0.28350586 18.29516602 -5.15649414 18.29516602 Z " fill="#a476ff" transform="translate(407.156494140625,144.704833984375)"/>
<path d="M0 0 C1.06347656 -0.01611328 2.12695312 -0.03222656 3.22265625 -0.04882812 C10.20731429 -0.05316642 15.63319062 0.25194995 21.0859375 5.03125 C21.55257812 5.6190625 22.01921875 6.206875 22.5 6.8125 C22.98210937 7.4003125 23.46421875 7.988125 23.9609375 8.59375 C26.28367716 12.02329849 26.26456517 15.12615706 26.30200195 19.14160156 C26.32125481 20.93926971 26.32125481 20.93926971 26.34089661 22.77325439 C26.34828354 24.07011169 26.35567047 25.36696899 26.36328125 26.703125 C26.36735678 27.36462303 26.3714323 28.02612106 26.37563133 28.70766449 C26.39647406 32.21054265 26.41078221 35.71338188 26.42016602 39.21630859 C26.43121329 42.82207853 26.46559773 46.42722843 26.50533772 50.03277969 C26.53157164 52.81588839 26.53986388 55.598851 26.54344749 58.38207245 C26.55064554 60.35345775 26.57705666 62.32474292 26.60383606 64.29595947 C26.5871998 71.18262636 26.38342882 75.77727213 22.125 81.3125 C15.85274733 86.98739527 10.56527087 86.56146291 2.48632812 86.60766602 C0.39645952 86.62482382 -1.69180334 86.66870219 -3.78125 86.71289062 C-5.11978007 86.72302311 -6.45832356 86.73153748 -7.796875 86.73828125 C-9.00956055 86.75286377 -10.22224609 86.76744629 -11.47167969 86.7824707 C-15.56542313 86.21715821 -17.67201905 84.87853109 -20.875 82.3125 C-24.66291369 77.29607376 -25.99532651 73.78147551 -26.03613281 67.55932617 C-26.04574036 66.3776738 -26.0553479 65.19602142 -26.06524658 63.9785614 C-26.06949646 62.70044083 -26.07374634 61.42232025 -26.078125 60.10546875 C-26.08382507 58.79218094 -26.08952515 57.47889313 -26.09539795 56.12580872 C-26.10589838 53.34420383 -26.11174706 50.56262777 -26.11523438 47.78100586 C-26.12071219 44.22681481 -26.14472847 40.67300819 -26.17320633 37.11893749 C-26.19637871 33.7186222 -26.19828553 30.31835889 -26.203125 26.91796875 C-26.2154718 25.64592087 -26.2278186 24.37387299 -26.24053955 23.0632782 C-26.23753845 21.87216934 -26.23453735 20.68106049 -26.23144531 19.45385742 C-26.23691376 17.88857552 -26.23691376 17.88857552 -26.24249268 16.29167175 C-25.61518519 11.20624594 -23.66481518 8.06797539 -20 4.5625 C-13.45241753 -0.15175938 -7.82516195 -0.0235414 0 0 Z M-7.875 18.3125 C-7.875 34.8125 -7.875 51.3125 -7.875 68.3125 C-2.595 68.3125 2.685 68.3125 8.125 68.3125 C8.125 51.8125 8.125 35.3125 8.125 18.3125 C2.845 18.3125 -2.435 18.3125 -7.875 18.3125 Z " fill="#a476ff" transform="translate(272.875,169.6875)"/>
</svg>
