<?xml version="1.0" encoding="UTF-8"?>
<svg version="1.1" xmlns="http://www.w3.org/2000/svg" width="512" height="512">
<path d="M0 0 C1.85781912 -0.00461378 3.71563458 -0.01096989 5.57344246 -0.01890898 C10.65816123 -0.03555983 15.74257851 -0.0273752 20.82729816 -0.0149641 C26.31886621 -0.00589857 31.8103831 -0.01989081 37.30194092 -0.03088379 C48.05184083 -0.04865751 58.80162895 -0.0448341 69.55153322 -0.03323323 C78.28926796 -0.02419469 87.0269714 -0.02297673 95.76470947 -0.02732849 C97.00895569 -0.02794142 98.25320191 -0.02855436 99.53515255 -0.02918586 C102.06292265 -0.03046478 104.59069273 -0.03176163 107.1184628 -0.03307623 C130.1384765 -0.04415371 153.15844071 -0.03267166 176.17844227 -0.01170584 C197.17937825 0.00727567 218.18021721 0.00557712 239.18115234 -0.0135498 C262.79246202 -0.03498245 286.40373038 -0.04338006 310.01505089 -0.03110075 C312.53345107 -0.02982657 315.05185126 -0.02856909 317.57025146 -0.02732849 C318.80930839 -0.02671139 320.04836531 -0.02609429 321.32496941 -0.02545848 C330.05082702 -0.02200677 338.77665017 -0.02783011 347.50250244 -0.0372467 C358.13838433 -0.04847237 368.77414815 -0.04541458 379.41001654 -0.02412373 C384.83518566 -0.01362108 390.26015802 -0.00947826 395.68532562 -0.02272034 C400.65460224 -0.03466609 405.62350026 -0.02804551 410.59274268 -0.00681013 C412.38734494 -0.00235335 414.18197938 -0.0045895 415.97656083 -0.01431328 C429.96581032 -0.08428008 441.16264311 1.47968718 451.66748047 11.50793457 C461.91999601 22.24769838 463.26236155 33.72380282 463.17541504 48.01818848 C463.18003023 49.67801776 463.18638728 51.33784296 463.19432402 52.99765968 C463.21095567 57.5351152 463.20279915 62.07223234 463.19037914 66.60968876 C463.18130565 71.5122966 463.19530977 76.41484744 463.20629883 81.31744385 C463.2240641 90.91230164 463.22025293 100.50703411 463.20864826 110.10189676 C463.19960639 117.90141737 463.19839321 125.7009029 463.20274353 133.50042725 C463.20335646 134.61145612 463.20396939 135.722485 463.2046009 136.86718142 C463.20587983 139.12437551 463.20717668 141.38156959 463.20849127 143.63876367 C463.21989123 164.79319237 463.2067925 185.94755168 463.1852898 207.101969 C463.16741936 225.24448706 463.17052363 243.38690274 463.18896484 261.52941895 C463.21038184 282.60932538 463.21879265 303.68917104 463.20651579 324.76908684 C463.20524162 327.01787185 463.20398414 329.26665687 463.20274353 331.51544189 C463.20212643 332.62182152 463.20150933 333.72820115 463.20087352 334.86810744 C463.19742312 342.65620678 463.20324231 350.44426749 463.21266174 358.23236084 C463.2238923 367.72639657 463.2208194 377.22030004 463.19953877 386.71432066 C463.18904264 391.55622096 463.18488204 396.39790094 463.19813538 401.2397995 C463.21009483 405.67617065 463.20343837 410.11211821 463.18222517 414.54845119 C463.17777413 416.1492454 463.17999153 417.75007574 463.18972832 419.35084653 C463.26557005 432.86079008 461.23800048 443.48257796 451.66748047 453.50793457 C440.37487669 464.2882085 428.20028337 465.0964156 413.33496094 465.01586914 C411.47714182 465.02048292 409.61932636 465.02683903 407.76151848 465.03477812 C402.67679971 465.05142898 397.59238242 465.04324434 392.50766277 465.03083324 C387.01609473 465.02176771 381.52457784 465.03575995 376.03302002 465.04675293 C365.2831201 465.06452665 354.53333199 465.06070324 343.78342772 465.04910237 C335.04569298 465.04006383 326.30798954 465.03884587 317.57025146 465.04319763 C316.32600525 465.04381056 315.08175903 465.0444235 313.79980838 465.045055 C311.27203829 465.04633392 308.74426821 465.04763077 306.21649814 465.04894537 C283.19648444 465.06002285 260.17652023 465.0485408 237.15651867 465.02757498 C216.15558268 465.00859347 195.15474373 465.01029202 174.15380859 465.02941895 C150.54249892 465.05085159 126.93123055 465.0592492 103.31991005 465.04696989 C100.80150987 465.04569571 98.28310967 465.04443823 95.76470947 465.04319763 C94.52565255 465.04258053 93.28659563 465.04196343 92.00999153 465.04132763 C83.28413392 465.03787591 74.55831077 465.04369925 65.8324585 465.05311584 C55.19657661 465.06434151 44.56081279 465.06128372 33.9249444 465.03999287 C28.49977528 465.02949022 23.07480292 465.0253474 17.64963531 465.03858948 C12.6803587 465.05053523 7.71146067 465.04391465 2.74221826 465.02267927 C0.947616 465.01822249 -0.84701844 465.02045864 -2.64159989 465.03018242 C-16.63084938 465.10014922 -27.82768217 463.53618196 -38.33251953 453.50793457 C-48.58503507 442.76817077 -49.92740061 431.29206632 -49.8404541 416.99768066 C-49.84506929 415.33785138 -49.85142634 413.67802618 -49.85936308 412.01820946 C-49.87599473 407.48075394 -49.86783821 402.9436368 -49.85541821 398.40618038 C-49.84634471 393.50357254 -49.86034883 388.6010217 -49.87133789 383.69842529 C-49.88910317 374.1035675 -49.88529199 364.50883503 -49.87368733 354.91397238 C-49.86464545 347.11445177 -49.86343228 339.31496624 -49.86778259 331.51544189 C-49.86870199 329.84889858 -49.86870199 329.84889858 -49.86963996 328.14868772 C-49.87091889 325.89149363 -49.87221575 323.63429955 -49.87353033 321.37710547 C-49.8849303 300.22267677 -49.87183156 279.06831746 -49.85032886 257.91390014 C-49.83245843 239.77138208 -49.8355627 221.62896641 -49.85400391 203.4864502 C-49.8754209 182.40654376 -49.88383171 161.3266981 -49.87155485 140.2467823 C-49.87028069 137.99799729 -49.8690232 135.74921227 -49.86778259 133.50042725 C-49.86716549 132.39404762 -49.86654839 131.28766799 -49.86591259 130.1477617 C-49.86246218 122.35966237 -49.86828137 114.57160166 -49.87770081 106.7835083 C-49.88893136 97.28947258 -49.88585846 87.7955691 -49.86457783 78.30154848 C-49.8540817 73.45964818 -49.84992111 68.6179682 -49.86317444 63.77606964 C-49.8751339 59.33969849 -49.86847743 54.90375093 -49.84726423 50.46741796 C-49.84281319 48.86662374 -49.84503059 47.2657934 -49.85476738 45.66502261 C-49.93060911 32.15507906 -47.90303955 21.53329118 -38.33251953 11.50793457 C-27.03991575 0.72766064 -14.86532243 -0.08054646 0 0 Z M-26.33251953 23.50793457 C-41.71175331 41.385318 -33.33251953 82.79863327 -33.33251953 96.50793457 C125.06748047 96.50793457 283.46748047 96.50793457 446.66748047 96.50793457 C450.93748046 62.85736757 450.93748046 62.85736757 439.66748047 23.50793457 C431.86126654 17.42173388 424.85874198 16.38457701 415.08458138 16.37930012 C413.98244441 16.37667056 413.98244441 16.37667056 412.85804206 16.37398788 C410.40063245 16.36934298 407.9432824 16.37178948 405.48587036 16.3742218 C403.70432896 16.37235307 401.92278797 16.37005212 400.14124763 16.36735648 C395.24895403 16.36123981 390.35667753 16.36137192 385.46438098 16.36255085 C380.18684294 16.36275489 374.90931039 16.35723585 369.6317749 16.35249329 C359.29378545 16.34418714 348.9558017 16.34143847 338.61780919 16.34088091 C330.21559181 16.34040578 321.8133763 16.33835117 313.41115952 16.33518028 C289.5922943 16.32637418 265.77343359 16.32176089 241.95456673 16.32251076 C240.67050698 16.32255071 239.38644722 16.32259067 238.06347656 16.32263184 C236.77785029 16.32267272 235.49222401 16.3227136 234.16763936 16.32275572 C213.32607542 16.32316228 192.48452953 16.31358996 171.64297082 16.29949347 C150.24591966 16.28513537 128.84887731 16.27822296 107.45182121 16.27908725 C95.43778399 16.27941939 83.4237657 16.2766647 71.40973282 16.26590919 C61.18216369 16.2568117 50.95462209 16.25462281 40.72705068 16.26141862 C35.50878116 16.26468747 30.29056447 16.26472728 25.07229996 16.25606537 C20.29428396 16.24821576 15.51636282 16.24961607 10.73834918 16.2583495 C9.01095304 16.25988787 7.28354987 16.25805567 5.55616201 16.25248943 C-11.50463907 15.95167051 -11.50463907 15.95167051 -26.33251953 23.50793457 Z M-33.33251953 112.50793457 C-33.37376953 163.80230957 -33.41501953 215.09668457 -33.45751953 267.94543457 C-33.47572754 284.15209229 -33.49393555 300.35875 -33.51269531 317.05651855 C-33.51938347 331.56220203 -33.51938347 331.56220203 -33.52340698 346.06788635 C-33.52527307 352.5375056 -33.53261374 359.00709036 -33.54367065 365.47669983 C-33.55640458 372.93859438 -33.56219064 380.40045582 -33.55940943 387.86236132 C-33.55820498 391.67914183 -33.56011013 395.49584834 -33.57094979 399.31261528 C-33.58249328 403.40209869 -33.57850403 407.49142135 -33.57302856 411.58091736 C-33.57885389 412.76833558 -33.58467922 413.9557538 -33.59068108 415.1791544 C-33.55596394 424.8144441 -32.85639672 433.92434129 -26.33251953 441.50793457 C-16.61404253 449.86837112 -3.94847652 448.79575612 8.08959961 448.76190186 C9.87286792 448.76420787 11.65613529 448.76738534 13.43940067 448.77135634 C18.32719685 448.77969359 23.21491477 448.77558391 28.1027112 448.76938391 C33.37885343 448.76485606 38.65498226 448.77184484 43.93112183 448.77734375 C54.26216127 448.78623582 64.59317164 448.78431656 74.92421222 448.77851847 C83.32066254 448.77400126 91.71710472 448.77338933 100.11355591 448.7755661 C101.30869405 448.77587257 102.50383219 448.77617903 103.73518664 448.77649479 C106.16310525 448.77713424 108.59102386 448.77778266 111.01894248 448.77843997 C133.78422563 448.78414272 156.54949268 448.77758623 179.3147732 448.76683924 C198.84738942 448.75790378 218.37998187 448.75945584 237.91259766 448.76867676 C260.59656255 448.77938035 283.28051333 448.7835934 305.9644804 448.77745223 C308.38345527 448.77681513 310.80243015 448.77618639 313.22140503 448.7755661 C315.00666653 448.77510327 315.00666653 448.77510327 316.82799393 448.7746311 C325.21411895 448.77290443 333.60023501 448.77581866 341.98635864 448.78052521 C352.20656273 448.78613502 362.42673609 448.78461545 372.64693666 448.77396372 C377.86116746 448.76870839 383.07534706 448.76664795 388.28957748 448.77326202 C393.06381629 448.77922638 397.83795644 448.77593825 402.61218631 448.76530692 C404.33817538 448.76307497 406.0641728 448.76420457 407.79015648 448.7690585 C423.6952766 449.19397625 423.6952766 449.19397625 437.66748047 442.50793457 C444.64577627 435.4794352 446.79450739 428.8049755 446.7905283 418.89702797 C446.79251917 417.79791965 446.79451004 416.69881134 446.79656124 415.56639671 C446.79364858 414.3702405 446.79073591 413.17408428 446.78773499 411.94168091 C446.788591 410.66556946 446.78944702 409.38945801 446.79032898 408.07467651 C446.79256943 404.532401 446.78856191 400.99015578 446.7835532 397.44788411 C446.77918494 393.56940444 446.78064792 389.69092615 446.78137112 385.81244469 C446.78190269 378.28443946 446.77728622 370.75644616 446.77086979 363.228444 C446.76366977 354.5204182 446.76287504 345.81239956 446.76208496 337.10437012 C446.75683463 314.11388971 446.74287352 291.12341196 446.72998047 268.13293457 C446.69904297 191.09855957 446.69904297 191.09855957 446.66748047 112.50793457 C288.26748047 112.50793457 129.86748047 112.50793457 -33.33251953 112.50793457 Z " fill="#a476ff" transform="translate(49.33251953125,23.4920654296875)"/>
<path d="M0 0 C1.06528821 -0.00523668 2.13057641 -0.01047336 3.22814608 -0.01586872 C6.79215019 -0.03085131 10.35601051 -0.03157351 13.92004395 -0.03224182 C16.47798911 -0.03986463 19.03593199 -0.04829234 21.59387207 -0.0574646 C28.54053076 -0.07940845 35.48713974 -0.08823094 42.43382835 -0.09329104 C46.77734708 -0.09655401 51.12085699 -0.10308022 55.46437073 -0.11029243 C67.50692203 -0.12985497 79.54946517 -0.14626045 91.59203339 -0.14916897 C92.74702569 -0.14945032 92.74702569 -0.14945032 93.92535117 -0.14973736 C95.48611482 -0.1501036 97.04687847 -0.1504673 98.60764211 -0.15082847 C99.38233628 -0.15101128 100.15703045 -0.1511941 100.9552002 -0.15138245 C101.7308481 -0.151563 102.506496 -0.15174354 103.30564839 -0.15192956 C115.85960796 -0.15546736 128.41339559 -0.18246652 140.96729559 -0.21988034 C153.87799047 -0.25804718 166.78860024 -0.27732707 179.69935274 -0.27762848 C186.93941993 -0.27821127 194.17928214 -0.28658721 201.41929626 -0.31562614 C208.23528387 -0.3428398 215.05086088 -0.34397388 221.86688232 -0.3279705 C224.36006047 -0.32616122 226.85326224 -0.33279927 229.34638977 -0.34878922 C247.38809859 -0.45738897 261.78039469 0.46341713 276.31262207 12.27415466 C277.14535645 12.90063904 277.97809082 13.52712341 278.83605957 14.17259216 C288.03392503 21.9777209 295.43201189 35.61465803 296.53381348 47.70042419 C297.00935343 58.67426745 297.21039679 69.20650663 292.31262207 79.27415466 C291.85371582 80.23579529 291.39480957 81.19743591 290.92199707 82.18821716 C283.93166085 95.83776842 272.9227859 105.23879794 258.31262207 110.27415466 C253.67461469 111.45508467 249.02261616 112.4284185 244.31262207 113.27415466 C245.33098145 113.98958435 246.34934082 114.70501404 247.39855957 115.44212341 C252.04347961 118.70974488 256.68010881 121.98897112 261.31262207 125.27415466 C262.57767578 126.17110046 262.57767578 126.17110046 263.86828613 127.08616638 C266.35341477 128.85206619 268.83371555 130.6245342 271.31262207 132.39915466 C272.09556641 132.9549823 272.87851074 133.51080994 273.68518066 134.08348083 C274.40786133 134.60273132 275.13054199 135.12198181 275.87512207 135.65696716 C276.51578613 136.11474548 277.1564502 136.5725238 277.81652832 137.04417419 C280.45242365 139.21121738 280.34454165 140.59867041 280.68762207 144.08665466 C280.83605957 146.10618591 280.83605957 146.10618591 280.31262207 148.27415466 C276.89269831 152.1219114 273.42152183 154.5892093 268.91809082 157.04368591 C268.02976311 157.53248482 268.02976311 157.53248482 267.12348938 158.03115845 C265.25335469 159.05780308 263.37698069 160.07236466 261.50012207 161.08665466 C260.2216936 161.78573195 258.94369428 162.48559465 257.6661377 163.18626404 C254.55320492 164.89132922 251.43456467 166.5856307 248.31262207 168.27415466 C252.33322678 175.75382223 256.52118617 183.09223136 260.9630127 190.32884216 C265.28168369 197.52442262 265.28168369 197.52442262 265.31262207 201.27415466 C263.28322141 206.73334478 260.28936812 209.05069638 255.37121582 211.80540466 C254.68890396 212.20440979 254.0065921 212.60341492 253.30360413 213.01451111 C251.12741037 214.28272854 248.93941674 215.52871715 246.75012207 216.77415466 C245.30591229 217.60992646 243.86254374 218.44715371 242.42004395 219.28587341 C239.64288223 220.8990813 236.85996161 222.50158849 234.07263184 224.09715271 C230.10296651 226.37851151 226.2090144 228.77503267 222.34338379 231.22850037 C218.69082489 233.10923008 216.34962429 233.02681609 212.31262207 232.27415466 C208.56695538 229.02384015 206.09645351 225.6038125 203.64855957 221.31712341 C203.0014502 220.20530701 202.35434082 219.0934906 201.68762207 217.94798279 C200.67912586 216.19423753 199.67439773 214.43844207 198.67297363 212.6806488 C197.69506656 210.97073143 196.70327721 209.26877667 195.71105957 207.56712341 C195.13017578 206.55158386 194.54929199 205.53604431 193.95080566 204.48973083 C193.41020508 203.7585907 192.86960449 203.02745056 192.31262207 202.27415466 C188.56658617 202.27415466 187.03653706 203.42028946 183.83215332 205.33665466 C182.74998535 205.96829529 181.66781738 206.59993591 180.55285645 207.25071716 C178.28216811 208.59113489 176.0164455 209.94000332 173.75598145 211.29759216 C162.91199381 217.58954473 162.91199381 217.58954473 156.31262207 216.27415466 C154.12542725 214.83329773 154.12542725 214.83329773 152.31262207 212.27415466 C151.73146676 209.06362548 151.80768699 205.89477884 151.85852051 202.6403656 C151.8579364 201.66442444 151.85735229 200.68848328 151.85675049 199.68296814 C151.85953676 196.45779326 151.89065521 193.23354305 151.92199707 190.00852966 C151.92945751 187.77222702 151.93515137 185.53591784 151.93914795 183.29960632 C151.95441969 177.41398567 151.99371525 171.52875992 152.03796387 165.64329529 C152.07888307 159.63749026 152.09715183 153.63162141 152.11730957 147.62571716 C152.16020763 135.8416895 152.22847796 124.05795492 152.31262207 112.27415466 C151.48362522 112.27784184 150.65462837 112.28152901 149.80051041 112.28532791 C129.5926086 112.3738164 109.38474037 112.43993104 89.17668533 112.48140335 C79.40405553 112.50199415 69.63155536 112.53004792 59.85900879 112.57591248 C51.33735684 112.61588713 42.81579882 112.64161276 34.2940557 112.65050864 C29.78535817 112.65570545 25.27692928 112.66784661 20.76831818 112.69707489 C16.51656283 112.72441231 12.26518442 112.73256302 8.01334953 112.72658539 C6.46063876 112.72767749 4.90791416 112.73552167 3.35527992 112.75097656 C-12.24105321 112.89848577 -27.2338081 108.92519378 -39.00378418 98.08665466 C-51.97007222 84.12758819 -56.33677863 69.29185003 -55.99987793 50.68040466 C-55.73779644 44.32929666 -54.47213464 38.9983768 -51.68737793 33.27415466 C-51.22847168 32.31251404 -50.76956543 31.35087341 -50.29675293 30.36009216 C-42.61110532 15.35285393 -30.49514928 6.73770832 -14.68639374 1.22830105 C-9.83220208 -0.13023097 -5.00814467 -0.01223201 0 0 Z M-30.68737793 31.27415466 C-38.12932953 41.44110353 -39.90823916 51.87507552 -38.68737793 64.27415466 C-36.46394179 75.07179961 -29.91232453 83.33247751 -21.14440918 89.77024841 C-9.83417796 96.69304495 2.35326859 96.42160431 15.1739502 96.38768005 C16.67264809 96.38739762 18.17134613 96.38755701 19.67004395 96.38812256 C23.71904011 96.38840836 27.76800638 96.38254686 31.81699562 96.3755486 C36.0557299 96.36927878 40.29446493 96.3687084 44.53320312 96.36752319 C52.55111827 96.36442056 60.56901972 96.35622159 68.58692884 96.3461737 C77.71874043 96.33497937 86.85055268 96.32949376 95.98236942 96.32447827 C114.75912806 96.31403806 133.53587396 96.29645934 152.31262207 96.27415466 C152.32720459 95.19931824 152.34178711 94.12448181 152.35681152 93.01707458 C152.41477097 89.0304075 152.49200336 85.04430666 152.57507324 81.05809021 C152.60833379 79.33259774 152.63636226 77.60699617 152.65905762 75.8813324 C152.6925836 73.40112301 152.74489613 70.92191436 152.80090332 68.44212341 C152.80729324 67.67015121 152.81368317 66.89817902 152.82026672 66.10281372 C152.96597445 60.79895594 152.96597445 60.79895594 154.61804199 58.2978363 C157.74759574 56.40729908 160.86319135 56.56557405 164.31262207 57.27415466 C167.58147552 58.83509098 170.40380292 60.87751366 173.31262207 63.02415466 C174.14148926 63.61325623 174.97035645 64.20235779 175.82434082 64.80931091 C181.69896455 69.0106115 187.47557229 73.34907369 193.21911621 77.7275238 C200.83783653 83.50648271 208.77439257 88.82506041 216.7088623 94.15769958 C218.31262207 95.27415466 218.31262207 95.27415466 219.31262207 96.27415466 C236.45831264 97.61984598 253.35081361 96.91778186 267.06262207 85.58665466 C274.3792598 78.72325997 278.75929293 70.52806077 279.64855957 60.47727966 C279.77580089 47.6004577 277.48499716 37.88244461 268.31262207 28.27415466 C257.41314128 17.86916828 244.80322719 16.11558568 230.32000732 16.14044189 C229.34158615 16.13817634 228.36316497 16.13591078 227.35509467 16.13357657 C224.0912505 16.12726918 220.82744821 16.12806384 217.56359863 16.12889099 C215.21738634 16.12589746 212.87117454 16.12249448 210.52496338 16.11871338 C204.16119534 16.10988877 197.79744075 16.10753591 191.43366718 16.10689759 C186.78661806 16.10606672 182.13957191 16.10316568 177.49252383 16.10006111 C164.98778898 16.09176211 152.48306124 16.08801812 139.97832373 16.08873085 C138.91451918 16.08879078 138.91451918 16.08879078 137.82922363 16.08885193 C137.11914782 16.08889281 136.40907202 16.08893369 135.67747876 16.08897581 C124.17566297 16.08938206 112.67387995 16.07981615 101.17207363 16.06571356 C89.34279028 16.05132469 77.51352288 16.04444476 65.68423057 16.04530734 C59.05076868 16.04563845 52.41733699 16.04273262 45.78388214 16.03212929 C39.54253604 16.02242488 33.30126233 16.02238523 27.05991364 16.02964592 C24.77511489 16.03068886 22.49031158 16.02834623 20.20552063 16.02228546 C-7.95121215 15.90647724 -7.95121215 15.90647724 -30.68737793 31.27415466 Z M168.31262207 81.27415466 C168.31262207 118.23415466 168.31262207 155.19415466 168.31262207 193.27415466 C171.71661941 191.91255573 174.42152755 190.7268603 177.49230957 188.89134216 C178.25672363 188.4466156 179.0211377 188.00188904 179.80871582 187.54368591 C181.3922742 186.61539307 182.97046914 185.67788852 184.54309082 184.73118591 C189.2333484 182.02739037 192.75602323 180.21639247 198.31262207 181.27415466 C202.02624358 184.53251545 204.54043234 187.94157275 207.01184082 192.19602966 C207.66346191 193.30333435 208.31508301 194.41063904 208.9864502 195.55149841 C209.65832989 196.70867001 210.32954678 197.86622668 211.00012207 199.02415466 C212.33117952 201.3143704 213.66963638 203.59977883 215.01184082 205.88352966 C215.89102173 207.39898376 215.89102173 207.39898376 216.78796387 208.9450531 C218.10175933 211.37847647 218.10175933 211.37847647 220.31262207 212.27415466 C222.7704375 211.11229189 222.7704375 211.11229189 225.50402832 209.37962341 C226.5307666 208.75378357 227.55750488 208.12794373 228.61535645 207.48313904 C229.6910791 206.81604919 230.76680176 206.14895935 231.87512207 205.46165466 C232.95471191 204.80616638 234.03430176 204.1506781 235.14660645 203.47532654 C240.50443918 200.64430787 240.50443918 200.64430787 244.31262207 196.27415466 C242.93727526 193.49151989 242.93727526 193.49151989 240.94543457 190.34837341 C240.59125458 189.76376846 240.23707458 189.17916351 239.87216187 188.57684326 C238.73488352 186.70037931 237.58746178 184.83044426 236.43762207 182.96165466 C234.93165952 180.51232366 233.43583212 178.05719849 231.94543457 175.59837341 C231.27399414 174.50613464 230.60255371 173.41389587 229.9107666 172.28855896 C227.86402542 168.42801612 226.92648091 165.98852448 227.89611816 161.68357849 C229.76885044 158.49812609 231.73681219 157.47421354 234.97668457 155.72337341 C236.09816895 155.10784607 237.21965332 154.49231873 238.37512207 153.85813904 C239.56244858 153.22565178 240.74995088 152.59349444 241.93762207 151.96165466 C243.13368148 151.31133378 244.32900363 150.659655 245.52355957 150.00657654 C248.44626603 148.41558714 251.37579467 146.83887856 254.31262207 145.27415466 C254.31262207 143.95415466 254.31262207 142.63415466 254.31262207 141.27415466 C252.81616146 139.713705 252.81616146 139.713705 250.71887207 138.46165466 C249.94414551 137.94989685 249.16941895 137.43813904 248.37121582 136.91087341 C247.52687988 136.37075623 246.68254395 135.83063904 245.81262207 135.27415466 C244.05016841 134.11056752 242.28978101 132.94384519 240.53137207 131.77415466 C239.6470752 131.18763123 238.76277832 130.60110779 237.85168457 129.99681091 C234.24070974 127.54690338 230.77343625 124.93004588 227.31262207 122.27415466 C221.6011206 117.91568025 215.76511894 113.7968548 209.81262207 109.77415466 C203.08400027 105.22489298 196.5232384 100.51439071 190.05041504 95.6091156 C185.54820397 92.19727484 181.01849363 88.82982187 176.43762207 85.52415466 C175.84811768 85.09336609 175.25861328 84.66257751 174.65124512 84.21873474 C171.77190693 81.96796722 171.77190693 81.96796722 168.31262207 81.27415466 Z " fill="#a476ff" transform="translate(135.6873779296875,199.72584533691406)"/>
<path d="M0 0 C1.1439901 -0.00623996 2.28798019 -0.01247993 3.46663666 -0.01890898 C6.64252578 -0.03211727 9.81780499 -0.02734515 12.99367905 -0.0149641 C16.41842676 -0.00592603 19.84309105 -0.01987711 23.26782227 -0.03088379 C29.97703364 -0.048687 36.68606621 -0.04482109 43.39528465 -0.03323323 C48.84711553 -0.02420623 54.29889622 -0.02297171 59.75073242 -0.02732849 C60.91383887 -0.02824789 60.91383887 -0.02824789 62.10044241 -0.02918586 C63.67557336 -0.03046474 65.2507043 -0.03176159 66.82583523 -0.03307623 C81.60206543 -0.0444873 96.37819643 -0.03136008 111.15441036 -0.00987476 C123.83801597 0.00799672 136.52147516 0.00489276 149.20507812 -0.0135498 C163.9277818 -0.03494724 178.65039849 -0.04338861 193.37311554 -0.03110075 C194.94250996 -0.02982653 196.51190439 -0.02856905 198.08129883 -0.02732849 C198.8535069 -0.02671139 199.62571498 -0.02609429 200.4213233 -0.02545848 C205.86773609 -0.02200219 211.31409379 -0.02783992 216.76049805 -0.0372467 C223.39627053 -0.04845558 230.0318537 -0.04545024 236.66760445 -0.02412373 C240.05447943 -0.01359812 243.4410386 -0.00951672 246.82791138 -0.02272034 C250.49626987 -0.03359472 254.16373051 -0.02000897 257.83203125 0 C258.90711693 -0.00892289 259.98220261 -0.01784577 261.08986664 -0.02703905 C268.27643033 0.04938763 268.27643033 0.04938763 271.57556152 2.41468048 C273.01900306 4.66875982 273.4575275 5.85117462 273.41601562 8.50793457 C273.43148437 9.49793457 273.43148437 9.49793457 273.44726562 10.50793457 C272.61058133 13.65780488 271.59936182 14.58412517 268.91601562 16.50793457 C265.22961889 17.12780633 261.56239796 17.04683006 257.83203125 17.01586914 C256.68804115 17.0221091 255.54405106 17.02834907 254.36539459 17.03477812 C251.18950547 17.04798641 248.01422626 17.04321429 244.8383522 17.03083324 C241.41360449 17.02179517 237.9889402 17.03574625 234.56420898 17.04675293 C227.85499761 17.06455614 221.14596504 17.06069023 214.4367466 17.04910237 C208.98491572 17.04007537 203.53313503 17.03884085 198.08129883 17.04319763 C196.91819238 17.04411703 196.91819238 17.04411703 195.73158884 17.045055 C194.15645789 17.04633388 192.58132695 17.04763073 191.00619602 17.04894537 C176.22996582 17.06035644 161.45383482 17.04722922 146.67762089 17.0257439 C133.99401528 17.00787242 121.31055609 17.01097638 108.62695312 17.02941895 C93.90424945 17.05081638 79.18163276 17.05925775 64.45891571 17.04696989 C62.88952129 17.04569567 61.32012686 17.04443819 59.75073242 17.04319763 C58.97852435 17.04258053 58.20631627 17.04196343 57.41070795 17.04132763 C51.96429516 17.03787133 46.51793746 17.04370906 41.0715332 17.05311584 C34.43576072 17.06432472 27.80017755 17.06131938 21.1644268 17.03999287 C17.77755182 17.02946726 14.39099265 17.02538586 11.00411987 17.03858948 C7.33576138 17.04946386 3.66830074 17.03587811 0 17.01586914 C-1.07508568 17.02479203 -2.15017136 17.03371491 -3.25783539 17.04290819 C-10.44439908 16.96648151 -10.44439908 16.96648151 -13.74353027 14.60118866 C-15.18697181 12.34710932 -15.62549625 11.16469452 -15.58398438 8.50793457 C-15.59945313 7.51793457 -15.59945313 7.51793457 -15.61523438 6.50793457 C-13.57830661 -1.16049937 -6.45352533 -0.05356231 0 0 Z " fill="#a476ff" transform="translate(47.083984375,71.4920654296875)"/>
<path d="M0 0 C5.82485779 3.51996782 10.54466582 8.98962934 12.5625 15.5 C13.36764105 23.33608208 13.68710392 31.11922577 8.5625 37.5 C3.75801361 42.54521222 -0.59927055 46.10562995 -7.70703125 46.8359375 C-16.22326573 46.92983204 -22.11345494 46.6177288 -28.40234375 40.62890625 C-34.7841668 33.72505269 -35.91792252 28.29832071 -35.7421875 18.9453125 C-35.04689797 11.08319245 -31.38995981 6.95041296 -25.53515625 1.9453125 C-18.47077988 -2.92213491 -7.84396301 -3.47595223 0 0 Z M-16.8125 17.125 C-18.92456506 20.21186432 -19.04945145 21.8282913 -18.4375 25.5 C-16.9375 28 -16.9375 28 -14.4375 29.5 C-10.7657913 30.11195145 -9.14936432 29.98706506 -6.0625 27.875 C-3.95043494 24.78813568 -3.82554855 23.1717087 -4.4375 19.5 C-5.9375 17 -5.9375 17 -8.4375 15.5 C-12.1092087 14.88804855 -13.72563568 15.01293494 -16.8125 17.125 Z " fill="#a476ff" transform="translate(467.4375,57.5)"/>
<path d="M0 0 C5.82485779 3.51996782 10.54466582 8.98962934 12.5625 15.5 C13.36764105 23.33608208 13.68710392 31.11922577 8.5625 37.5 C3.75801361 42.54521222 -0.59927055 46.10562995 -7.70703125 46.8359375 C-16.22326573 46.92983204 -22.11345494 46.6177288 -28.40234375 40.62890625 C-34.7841668 33.72505269 -35.91792252 28.29832071 -35.7421875 18.9453125 C-35.04689797 11.08319245 -31.38995981 6.95041296 -25.53515625 1.9453125 C-18.47077988 -2.92213491 -7.84396301 -3.47595223 0 0 Z M-16.8125 17.125 C-18.92456506 20.21186432 -19.04945145 21.8282913 -18.4375 25.5 C-16.9375 28 -16.9375 28 -14.4375 29.5 C-10.7657913 30.11195145 -9.14936432 29.98706506 -6.0625 27.875 C-3.95043494 24.78813568 -3.82554855 23.1717087 -4.4375 19.5 C-5.9375 17 -5.9375 17 -8.4375 15.5 C-12.1092087 14.88804855 -13.72563568 15.01293494 -16.8125 17.125 Z " fill="#a476ff" transform="translate(403.4375,57.5)"/>
</svg>
